<?xml version="1.0" encoding="UTF-8"?>
<svg width="250px" height="31px" viewBox="0 0 250 31" version="1.1" xmlns="http://www.w3.org/2000/svg" xmlns:xlink="http://www.w3.org/1999/xlink">
    <title>Group</title>
    <g id="Page-1" stroke="none" stroke-width="1" fill="none" fill-rule="evenodd">
        <g id="Group" fill-rule="nonzero">
            <path d="M127.013,0.330078 C127.797,0.330078 128.467,0.402268 129.024,0.55696 C129.581,0.711653 130.034,0.917909 130.395,1.19636 C130.756,1.4748 131.014,1.80481 131.179,2.1967 C131.344,2.58859 131.427,3.03204 131.427,3.52705 C131.427,3.8055 131.385,4.07363 131.303,4.33145 C131.22,4.58927 131.086,4.82647 130.921,5.05335 C130.746,5.28023 130.529,5.47618 130.261,5.66181 C129.993,5.84744 129.674,6.00213 129.302,6.12588 C130.952,6.49715 131.777,7.38405 131.777,8.7969 C131.777,9.30223 131.685,9.77662 131.489,10.2098 C131.293,10.6429 131.014,11.0142 130.643,11.3235 C130.272,11.6329 129.818,11.8804 129.271,12.0558 C128.725,12.2311 128.106,12.3239 127.415,12.3239 L122.888,12.3239 L122.888,0.330078 L127.013,0.330078 Z M125.115,2.05232 L125.115,5.51743 L126.889,5.51743 C127.652,5.51743 128.23,5.38336 128.622,5.10491 C129.014,4.82647 129.209,4.39333 129.209,3.78487 C129.209,3.17642 129.034,2.71234 128.683,2.45452 C128.333,2.18639 127.776,2.05232 127.023,2.05232 L125.126,2.05232 L125.115,2.05232 Z M127.374,10.5707 C127.786,10.5707 128.137,10.5191 128.415,10.4263 C128.694,10.3232 128.921,10.1891 129.096,10.0241 C129.261,9.85913 129.385,9.66318 129.457,9.44661 C129.529,9.23004 129.57,8.99285 129.57,8.74534 C129.57,8.49783 129.529,8.25033 129.447,8.04407 C129.364,7.83781 129.23,7.66249 129.055,7.51811 C128.879,7.37374 128.653,7.26029 128.374,7.17779 C128.096,7.09529 127.755,7.06435 127.363,7.06435 L125.115,7.06435 L125.115,10.581 L127.374,10.581 L127.374,10.5707 Z" id="Shape" fill="#193E72"/>
            <path d="M177.225,0.330078 C178.009,0.330078 178.679,0.402268 179.236,0.55696 C179.793,0.711653 180.246,0.917909 180.607,1.19636 C180.968,1.4748 181.226,1.80481 181.391,2.1967 C181.556,2.58859 181.639,3.03204 181.639,3.52705 C181.639,3.8055 181.597,4.07363 181.515,4.33145 C181.432,4.58927 181.298,4.82647 181.133,5.05335 C180.958,5.28023 180.741,5.47618 180.473,5.66181 C180.205,5.84744 179.886,6.00213 179.514,6.12588 C181.164,6.49715 181.989,7.38405 181.989,8.7969 C181.989,9.30223 181.897,9.77662 181.701,10.2098 C181.505,10.6429 181.226,11.0142 180.855,11.3235 C180.484,11.6329 180.03,11.8804 179.483,12.0558 C178.937,12.2311 178.318,12.3239 177.627,12.3239 L173.1,12.3239 L173.1,0.330078 L177.225,0.330078 Z M175.327,2.05232 L175.327,5.51743 L177.101,5.51743 C177.864,5.51743 178.442,5.38336 178.834,5.10491 C179.226,4.82647 179.421,4.39333 179.421,3.78487 C179.421,3.17642 179.246,2.71234 178.895,2.45452 C178.545,2.18639 177.988,2.05232 177.235,2.05232 L175.338,2.05232 L175.327,2.05232 Z M177.586,10.5707 C177.998,10.5707 178.349,10.5191 178.627,10.4263 C178.906,10.3232 179.133,10.1891 179.308,10.0241 C179.473,9.85913 179.597,9.66318 179.669,9.44661 C179.741,9.23004 179.782,8.99285 179.782,8.74534 C179.782,8.49783 179.741,8.25033 179.659,8.04407 C179.576,7.83781 179.442,7.66249 179.267,7.51811 C179.091,7.37374 178.865,7.26029 178.586,7.17779 C178.308,7.09529 177.967,7.06435 177.575,7.06435 L175.327,7.06435 L175.327,10.581 L177.586,10.581 L177.586,10.5707 Z" id="Shape-Copy" fill="#193E72"/>
            <path d="M135.006,5.29056 C135.274,4.78523 135.583,4.38303 135.954,4.09427 C136.326,3.80551 136.749,3.66113 137.244,3.66113 C137.635,3.66113 137.955,3.74364 138.192,3.91895 L138.058,5.45556 C138.027,5.55869 137.986,5.63088 137.934,5.67213 C137.883,5.71338 137.811,5.73401 137.718,5.73401 C137.635,5.73401 137.512,5.7237 137.347,5.69276 C137.182,5.66182 137.027,5.65151 136.872,5.65151 C136.645,5.65151 136.439,5.68245 136.264,5.75464 C136.089,5.81651 135.923,5.91964 135.789,6.04339 C135.655,6.16715 135.521,6.32184 135.418,6.49716 C135.315,6.67248 135.212,6.87873 135.119,7.10562 L135.119,12.3445 L133.077,12.3445 L133.077,3.81583 L134.284,3.81583 C134.49,3.81583 134.645,3.85708 134.727,3.92927 C134.81,4.00146 134.861,4.13552 134.892,4.33147 L135.016,5.29056 L135.006,5.29056 Z" id="Path" fill="#193E72"/>
            <path d="M141.409,1.33024 C141.409,1.50555 141.368,1.67056 141.306,1.82525 C141.234,1.97994 141.141,2.11401 141.017,2.22745 C140.893,2.34089 140.759,2.43371 140.594,2.5059 C140.429,2.57809 140.264,2.60903 140.079,2.60903 C139.893,2.60903 139.738,2.57809 139.573,2.5059 C139.419,2.43371 139.274,2.34089 139.161,2.22745 C139.047,2.11401 138.955,1.97994 138.882,1.82525 C138.81,1.67056 138.779,1.50555 138.779,1.33024 C138.779,1.15492 138.81,0.9796 138.882,0.814595 C138.955,0.64959 139.047,0.515523 139.161,0.402082 C139.274,0.288641 139.419,0.195826 139.573,0.123636 C139.728,0.0514463 139.893,0.0205078 140.079,0.0205078 C140.264,0.0205078 140.429,0.0514463 140.594,0.123636 C140.759,0.195826 140.893,0.288641 141.017,0.402082 C141.141,0.515523 141.234,0.659903 141.306,0.814595 C141.378,0.9796 141.409,1.14461 141.409,1.33024 Z M141.131,3.80531 L141.131,12.3134 L139.078,12.3134 L139.078,3.81563 L141.131,3.81563 L141.131,3.80531 Z" id="Shape" fill="#193E72"/>
            <path d="M148.155,5.46564 C148.103,5.55846 148.041,5.62033 147.979,5.65127 C147.917,5.68221 147.845,5.70284 147.752,5.70284 C147.649,5.70284 147.546,5.6719 147.433,5.62033 C147.319,5.56877 147.185,5.50689 147.041,5.4347 C146.896,5.36251 146.721,5.30064 146.535,5.24907 C146.35,5.19751 146.123,5.16657 145.855,5.16657 C145.453,5.16657 145.133,5.24907 144.906,5.42439 C144.679,5.59971 144.566,5.81628 144.566,6.09472 C144.566,6.28035 144.628,6.43505 144.741,6.5588 C144.854,6.68255 145.019,6.79599 145.215,6.88881 C145.411,6.98163 145.638,7.06413 145.886,7.14663 C146.133,7.22913 146.391,7.30132 146.649,7.39414 C146.907,7.48695 147.154,7.57977 147.412,7.69321 C147.67,7.80665 147.886,7.95103 148.082,8.12635 C148.278,8.30167 148.433,8.50792 148.557,8.75543 C148.67,9.00294 148.732,9.2917 148.732,9.63202 C148.732,10.0445 148.66,10.4158 148.515,10.7664 C148.371,11.1068 148.155,11.4058 147.866,11.6636 C147.577,11.9112 147.226,12.1071 146.804,12.2515 C146.381,12.3959 145.896,12.4577 145.339,12.4577 C145.05,12.4577 144.762,12.4268 144.483,12.3752 C144.205,12.3237 143.937,12.2515 143.679,12.1587 C143.421,12.0658 143.184,11.9524 142.967,11.8287 C142.751,11.7049 142.555,11.5605 142.39,11.4161 L142.864,10.6324 C142.926,10.5395 142.998,10.4674 143.081,10.4158 C143.163,10.3642 143.266,10.3436 143.4,10.3436 C143.534,10.3436 143.648,10.3849 143.761,10.4467 C143.875,10.5189 144.009,10.6014 144.153,10.6839 C144.298,10.7664 144.473,10.8489 144.679,10.9211 C144.885,10.9933 145.133,11.0243 145.442,11.0243 C145.69,11.0243 145.896,10.9933 146.071,10.9417 C146.247,10.8799 146.391,10.8077 146.504,10.7149 C146.618,10.6221 146.7,10.5086 146.752,10.3849 C146.804,10.2611 146.834,10.127 146.834,10.0033 C146.834,9.80734 146.773,9.64233 146.659,9.51858 C146.535,9.39483 146.381,9.28138 146.185,9.18857 C145.989,9.09575 145.762,9.01325 145.514,8.93075 C145.267,8.84825 145.009,8.77606 144.741,8.68324 C144.483,8.59043 144.225,8.4873 143.968,8.37386 C143.72,8.2501 143.493,8.10572 143.297,7.92009 C143.101,7.73446 142.947,7.51789 142.823,7.24976 C142.699,6.98163 142.647,6.66193 142.647,6.29067 C142.647,5.94003 142.72,5.61002 142.854,5.30064 C142.988,4.98094 143.194,4.71281 143.462,4.47561 C143.73,4.23842 144.06,4.05278 144.463,3.9084 C144.865,3.76403 145.329,3.70215 145.855,3.70215 C146.443,3.70215 146.969,3.79496 147.453,3.99091 C147.938,4.18685 148.33,4.43436 148.66,4.75406 L148.196,5.49658 L148.155,5.46564 Z" id="Path" fill="#193E72"/>
            <path d="M152.846,12.4475 C152.104,12.4475 151.537,12.2413 151.145,11.8184 C150.753,11.4059 150.557,10.8284 150.557,10.0859 L150.557,5.34198 L149.691,5.34198 C149.577,5.34198 149.484,5.30073 149.412,5.23886 C149.33,5.16667 149.299,5.06354 149.299,4.91916 L149.299,4.10445 L150.67,3.87756 L151.104,1.55718 C151.135,1.44374 151.186,1.36124 151.258,1.29936 C151.33,1.23748 151.434,1.20654 151.557,1.20654 L152.62,1.20654 L152.62,3.88788 L154.888,3.88788 L154.888,5.34198 L152.62,5.34198 L152.62,9.95182 C152.62,10.2199 152.681,10.4262 152.815,10.5706 C152.95,10.715 153.125,10.7975 153.352,10.7975 C153.476,10.7975 153.589,10.7872 153.671,10.7562 C153.754,10.7253 153.836,10.6943 153.898,10.6634 C153.96,10.6325 154.022,10.6015 154.074,10.5706 C154.125,10.5396 154.177,10.5293 154.218,10.5293 C154.28,10.5293 154.331,10.5396 154.362,10.5706 C154.404,10.6015 154.445,10.6428 154.486,10.7047 L155.095,11.6947 C154.796,11.9422 154.455,12.1278 154.063,12.2619 C153.671,12.396 153.28,12.4475 152.857,12.4475 L152.846,12.4475 Z" id="Path" fill="#193E72"/>
            <path d="M159.622,3.68164 C160.251,3.68164 160.829,3.78477 161.344,3.99103 C161.86,4.19728 162.304,4.48604 162.675,4.8573 C163.046,5.22856 163.325,5.69264 163.52,6.22891 C163.716,6.76517 163.82,7.37363 163.82,8.04396 C163.82,8.7143 163.716,9.32275 163.52,9.86933 C163.325,10.4056 163.036,10.8697 162.675,11.2513 C162.314,11.6328 161.87,11.9216 161.344,12.1278 C160.819,12.3341 160.251,12.4372 159.622,12.4372 C158.993,12.4372 158.405,12.3341 157.89,12.1278 C157.374,11.9216 156.931,11.6328 156.559,11.2513 C156.188,10.8697 155.91,10.4056 155.703,9.86933 C155.497,9.33307 155.404,8.72461 155.404,8.04396 C155.404,7.36332 155.507,6.77549 155.703,6.22891 C155.899,5.68233 156.188,5.22856 156.559,4.8573 C156.931,4.48604 157.374,4.18697 157.89,3.99103 C158.405,3.78477 158.983,3.68164 159.622,3.68164 Z M159.622,10.8697 C160.334,10.8697 160.849,10.6325 161.19,10.1581 C161.53,9.6837 161.695,8.98243 161.695,8.0749 C161.695,7.16737 161.52,6.45579 161.19,5.9814 C160.849,5.4967 160.324,5.2595 159.622,5.2595 C158.921,5.2595 158.374,5.4967 158.024,5.9814 C157.673,6.4661 157.508,7.16737 157.508,8.0749 C157.508,8.98243 157.683,9.6837 158.024,10.1581 C158.364,10.6325 158.9,10.88 159.622,10.88 L159.622,10.8697 Z" id="Shape" fill="#193E72"/>
            <polygon id="Path" fill="#193E72" points="167.202 0 167.202 12.3135 165.16 12.3135 165.16 0"/>
            <path d="M185.703,1.33024 C185.703,1.50555 185.662,1.67056 185.6,1.82525 C185.528,1.97994 185.435,2.11401 185.311,2.22745 C185.187,2.34089 185.053,2.43371 184.888,2.5059 C184.723,2.57809 184.558,2.60903 184.373,2.60903 C184.187,2.60903 184.032,2.57809 183.867,2.5059 C183.713,2.43371 183.568,2.34089 183.455,2.22745 C183.341,2.11401 183.249,1.97994 183.176,1.82525 C183.104,1.67056 183.073,1.50555 183.073,1.33024 C183.073,1.15492 183.104,0.9796 183.176,0.814595 C183.249,0.64959 183.341,0.515523 183.455,0.402082 C183.568,0.288641 183.713,0.195826 183.867,0.123636 C184.022,0.0514463 184.187,0.0205078 184.373,0.0205078 C184.558,0.0205078 184.723,0.0514463 184.888,0.123636 C185.053,0.195826 185.187,0.288641 185.311,0.402082 C185.435,0.515523 185.528,0.659903 185.6,0.814595 C185.672,0.9796 185.703,1.14461 185.703,1.33024 Z M185.425,3.80531 L185.425,12.3134 L183.372,12.3134 L183.372,3.81563 L185.425,3.81563 L185.425,3.80531 Z" id="Shape" fill="#193E72"/>
            <path d="M191.025,3.68164 C191.654,3.68164 192.231,3.78477 192.747,3.99103 C193.262,4.19728 193.706,4.48604 194.077,4.8573 C194.448,5.22856 194.727,5.69264 194.923,6.22891 C195.119,6.76517 195.222,7.37363 195.222,8.04396 C195.222,8.7143 195.119,9.32275 194.923,9.86933 C194.727,10.4056 194.438,10.8697 194.077,11.2513 C193.716,11.6328 193.262,11.9216 192.747,12.1278 C192.231,12.3341 191.654,12.4372 191.025,12.4372 C190.395,12.4372 189.808,12.3341 189.292,12.1278 C188.776,11.9216 188.333,11.6328 187.962,11.2513 C187.59,10.8697 187.312,10.4056 187.106,9.86933 C186.899,9.33307 186.807,8.72461 186.807,8.04396 C186.807,7.36332 186.91,6.77549 187.106,6.22891 C187.312,5.69264 187.59,5.22856 187.962,4.8573 C188.333,4.48604 188.776,4.18697 189.292,3.99103 C189.808,3.78477 190.385,3.68164 191.025,3.68164 Z M191.025,10.8697 C191.736,10.8697 192.252,10.6325 192.592,10.1581 C192.932,9.6837 193.097,8.98243 193.097,8.0749 C193.097,7.16737 192.932,6.45579 192.592,5.9814 C192.252,5.4967 191.726,5.2595 191.025,5.2595 C190.323,5.2595 189.777,5.4967 189.426,5.9814 C189.086,6.4661 188.91,7.16737 188.91,8.0749 C188.91,8.98243 189.086,9.6837 189.426,10.1581 C189.766,10.6325 190.303,10.88 191.025,10.88 L191.025,10.8697 Z" id="Shape" fill="#193E72"/>
            <path d="M196.531,12.3135 L196.531,3.81571 L197.779,3.81571 C198.047,3.81571 198.223,3.93946 198.305,4.18697 L198.439,4.81605 C198.584,4.65105 198.749,4.49635 198.903,4.36229 C199.068,4.22822 199.244,4.10447 199.429,4.00134 C199.615,3.89821 199.811,3.82602 200.027,3.76414 C200.244,3.70227 200.471,3.68164 200.729,3.68164 C201.265,3.68164 201.708,3.82602 202.049,4.11478 C202.389,4.40354 202.647,4.78511 202.822,5.26982 C202.956,4.99137 203.121,4.74386 203.317,4.54792 C203.513,4.34166 203.73,4.18697 203.967,4.0529 C204.204,3.92915 204.462,3.83633 204.73,3.77446 C204.998,3.71258 205.266,3.68164 205.534,3.68164 C206.009,3.68164 206.421,3.75383 206.782,3.89821 C207.143,4.04259 207.453,4.24885 207.7,4.52729 C207.948,4.80574 208.133,5.13575 208.267,5.53795 C208.401,5.94015 208.463,6.39391 208.463,6.90955 L208.463,12.3238 L206.421,12.3238 L206.421,6.89924 C206.421,6.36297 206.298,5.95046 206.06,5.67202 C205.823,5.39357 205.473,5.2595 205.019,5.2595 C204.813,5.2595 204.617,5.29044 204.431,5.36263 C204.256,5.43482 204.091,5.53795 203.957,5.67202 C203.823,5.80608 203.719,5.9814 203.637,6.17734 C203.554,6.37329 203.523,6.6208 203.523,6.87862 L203.523,12.2928 L201.471,12.2928 L201.471,6.89924 C201.471,6.33204 201.358,5.91952 201.131,5.65139 C200.904,5.39357 200.564,5.2595 200.12,5.2595 C199.821,5.2595 199.543,5.33169 199.285,5.47607 C199.027,5.62045 198.79,5.82671 198.563,6.07422 L198.563,12.3032 L196.511,12.3032 L196.531,12.3135 Z" id="Path" fill="#193E72"/>
            <path d="M211.743,8.32235 C211.774,8.75549 211.857,9.13706 211.98,9.45676 C212.104,9.77646 212.259,10.0343 212.465,10.2405 C212.661,10.4468 212.898,10.6015 213.177,10.7046 C213.445,10.8077 213.754,10.8593 214.084,10.8593 C214.414,10.8593 214.703,10.8181 214.94,10.7459 C215.177,10.6634 215.394,10.5809 215.569,10.488 C215.744,10.3952 215.91,10.3127 216.044,10.2302 C216.178,10.1477 216.312,10.1168 216.435,10.1168 C216.611,10.1168 216.735,10.1787 216.817,10.3127 L217.405,11.0552 C217.178,11.3234 216.92,11.54 216.642,11.7256 C216.363,11.9009 216.064,12.0453 215.755,12.1587 C215.445,12.2722 215.136,12.3444 214.816,12.3856 C214.497,12.4269 214.187,12.4475 213.888,12.4475 C213.3,12.4475 212.743,12.3444 212.238,12.1484 C211.733,11.9525 211.289,11.6637 210.908,11.2821 C210.537,10.9006 210.237,10.4262 210.021,9.85896 C209.804,9.29176 209.701,8.63174 209.701,7.88921 C209.701,7.3117 209.794,6.76512 209.98,6.24947 C210.165,5.73383 210.433,5.29038 210.784,4.91912 C211.135,4.53755 211.568,4.23847 212.073,4.02191 C212.578,3.80534 213.146,3.69189 213.785,3.69189 C214.321,3.69189 214.816,3.7744 215.27,3.94972 C215.724,4.12503 216.116,4.37254 216.435,4.70255 C216.765,5.03256 217.013,5.43476 217.199,5.90915 C217.384,6.38354 217.477,6.93012 217.477,7.54889 C217.477,7.85827 217.446,8.06453 217.374,8.17797 C217.302,8.29141 217.178,8.34298 216.992,8.34298 L211.733,8.34298 L211.743,8.32235 Z M215.652,7.08481 C215.652,6.81668 215.61,6.56917 215.538,6.33198 C215.466,6.09478 215.353,5.88853 215.198,5.71321 C215.054,5.53789 214.858,5.39351 214.631,5.29038 C214.404,5.18725 214.136,5.13569 213.826,5.13569 C213.238,5.13569 212.774,5.30069 212.434,5.64102 C212.094,5.98134 211.877,6.45573 211.784,7.0745 L215.652,7.0745 L215.652,7.08481 Z" id="Shape" fill="#193E72"/>
            <path d="M226.15,0 L226.15,12.3135 L224.902,12.3135 C224.634,12.3135 224.458,12.1898 224.386,11.9422 L224.211,11.1172 C223.871,11.5091 223.479,11.8288 223.035,12.066 C222.592,12.3135 222.076,12.427 221.478,12.427 C221.014,12.427 220.591,12.3341 220.199,12.1382 C219.807,11.9422 219.477,11.6638 219.199,11.2925 C218.92,10.9213 218.704,10.4675 218.549,9.93125 C218.394,9.39498 218.322,8.77621 218.322,8.07494 C218.322,7.44586 218.405,6.85803 218.58,6.32176 C218.755,5.78549 218.993,5.3111 219.312,4.9089 C219.632,4.5067 220.014,4.19732 220.467,3.98075 C220.911,3.75387 221.416,3.64043 221.973,3.64043 C222.447,3.64043 222.85,3.71262 223.19,3.86731 C223.53,4.01169 223.829,4.21794 224.097,4.47576 L224.097,0 L226.15,0 Z M224.097,5.98144 C223.871,5.70299 223.613,5.49673 223.334,5.38329 C223.066,5.26985 222.767,5.20798 222.447,5.20798 C222.128,5.20798 221.86,5.26985 221.612,5.38329 C221.365,5.49673 221.148,5.67205 220.973,5.90925 C220.797,6.14644 220.663,6.44551 220.57,6.80646 C220.478,7.16741 220.426,7.59024 220.426,8.08525 C220.426,8.58027 220.467,9.00309 220.55,9.35373 C220.632,9.69405 220.746,9.98281 220.89,10.1994 C221.035,10.416 221.22,10.5706 221.437,10.6738 C221.653,10.7769 221.891,10.8181 222.159,10.8181 C222.581,10.8181 222.942,10.7253 223.241,10.55 C223.541,10.3747 223.819,10.1169 224.087,9.79718 L224.087,5.98144 L224.097,5.98144 Z" id="Shape" fill="#193E72"/>
            <path d="M230.327,1.33024 C230.327,1.50555 230.286,1.67056 230.224,1.82525 C230.152,1.97994 230.059,2.11401 229.935,2.22745 C229.811,2.34089 229.677,2.43371 229.512,2.5059 C229.347,2.57809 229.182,2.60903 228.997,2.60903 C228.811,2.60903 228.656,2.57809 228.491,2.5059 C228.337,2.43371 228.192,2.34089 228.079,2.22745 C227.965,2.11401 227.873,1.97994 227.8,1.82525 C227.728,1.67056 227.697,1.50555 227.697,1.33024 C227.697,1.15492 227.728,0.9796 227.8,0.814595 C227.873,0.64959 227.965,0.515523 228.079,0.402082 C228.192,0.288641 228.337,0.195826 228.491,0.123636 C228.646,0.0514463 228.811,0.0205078 228.997,0.0205078 C229.182,0.0205078 229.347,0.0514463 229.512,0.123636 C229.677,0.195826 229.811,0.288641 229.935,0.402082 C230.059,0.515523 230.152,0.659903 230.224,0.814595 C230.296,0.9796 230.327,1.14461 230.327,1.33024 Z M230.049,3.80531 L230.049,12.3134 L227.996,12.3134 L227.996,3.81563 L230.049,3.81563 L230.049,3.80531 Z" id="Shape" fill="#193E72"/>
            <path d="M237.978,5.6102 C237.917,5.6927 237.855,5.74426 237.803,5.79583 C237.741,5.83708 237.659,5.8577 237.545,5.8577 C237.442,5.8577 237.339,5.82677 237.236,5.76489 C237.133,5.70301 237.019,5.63082 236.875,5.54832 C236.731,5.46582 236.576,5.39363 236.38,5.33175 C236.184,5.26987 235.957,5.23894 235.668,5.23894 C235.307,5.23894 234.998,5.30081 234.72,5.43488 C234.451,5.56895 234.225,5.75458 234.039,5.99177 C233.864,6.23928 233.73,6.52804 233.637,6.87867 C233.544,7.219 233.503,7.61088 233.503,8.05434 C233.503,8.49779 233.554,8.9103 233.647,9.26094 C233.74,9.61157 233.884,9.91064 234.07,10.1478 C234.256,10.385 234.472,10.5707 234.73,10.6944 C234.988,10.8182 235.287,10.88 235.607,10.88 C235.926,10.88 236.194,10.8388 236.401,10.7563 C236.607,10.6738 236.772,10.5913 236.906,10.4882 C237.04,10.3953 237.164,10.3025 237.267,10.22 C237.37,10.1375 237.483,10.0963 237.607,10.0963 C237.772,10.0963 237.896,10.1582 237.978,10.2922 L238.566,11.0347 C238.339,11.3029 238.092,11.5194 237.834,11.7051 C237.566,11.8804 237.298,12.0248 237.009,12.1382 C236.72,12.2517 236.432,12.3238 236.132,12.3651 C235.833,12.4063 235.534,12.427 235.235,12.427 C234.709,12.427 234.214,12.3238 233.75,12.1279 C233.286,11.932 232.884,11.6432 232.533,11.2719 C232.183,10.9007 231.915,10.4366 231.708,9.89002 C231.502,9.34344 231.409,8.72467 231.409,8.03371 C231.409,7.40463 231.502,6.82711 231.677,6.30116 C231.853,5.76489 232.121,5.31113 232.471,4.91924 C232.822,4.52735 233.255,4.22828 233.761,4.0014 C234.266,3.77452 234.864,3.67139 235.534,3.67139 C236.205,3.67139 236.731,3.77451 237.205,3.98077 C237.679,4.18703 238.113,4.47579 238.494,4.85736 L237.958,5.59988 L237.978,5.6102 Z" id="Path" fill="#193E72"/>
            <path d="M239.433,5.0018 C240.413,4.10458 241.588,3.66113 242.96,3.66113 C243.455,3.66113 243.898,3.74364 244.29,3.90864 C244.682,4.07365 245.012,4.30053 245.28,4.58929 C245.549,4.87805 245.755,5.22868 245.899,5.63088 C246.044,6.03308 246.116,6.47653 246.116,6.96124 L246.116,12.3342 L245.188,12.3342 C244.992,12.3342 244.847,12.3033 244.744,12.2517 C244.641,12.2001 244.558,12.0764 244.497,11.9011 L244.311,11.2926 C244.094,11.4886 243.888,11.6536 243.682,11.7979 C243.476,11.9423 243.259,12.0661 243.043,12.1692 C242.826,12.2723 242.589,12.3445 242.331,12.3961 C242.083,12.4477 241.805,12.4786 241.496,12.4786 C241.135,12.4786 240.805,12.427 240.506,12.3342 C240.206,12.2414 239.938,12.097 239.722,11.9011 C239.505,11.7051 239.33,11.4679 239.206,11.1792 C239.082,10.8904 239.021,10.5604 239.021,10.1788 C239.021,9.96227 239.062,9.7457 239.124,9.53944 C239.196,9.32287 239.309,9.12693 239.474,8.93098 C239.639,8.73504 239.846,8.55972 240.103,8.38441 C240.361,8.20909 240.681,8.06471 241.062,7.94095 C241.444,7.8172 241.877,7.71407 242.382,7.63157 C242.888,7.54907 243.455,7.50782 244.105,7.48719 L244.105,6.99217 C244.105,6.42497 243.981,6.00214 243.744,5.7237 C243.496,5.44525 243.146,5.31118 242.692,5.31118 C242.362,5.31118 242.083,5.35244 241.867,5.42463 C241.65,5.49682 241.454,5.58963 241.289,5.68245 C241.124,5.77526 240.97,5.86808 240.836,5.94027 C240.701,6.02277 240.547,6.05371 240.382,6.05371 C240.237,6.05371 240.114,6.01246 240.021,5.94027 C239.928,5.86808 239.846,5.77526 239.784,5.68245 L239.423,5.02243 L239.433,5.0018 Z M244.125,8.69379 C243.538,8.72473 243.032,8.77629 242.63,8.84848 C242.228,8.92067 241.898,9.01349 241.661,9.13724 C241.413,9.25068 241.248,9.38475 241.135,9.53944 C241.032,9.69413 240.98,9.85914 240.98,10.0448 C240.98,10.4057 241.083,10.6635 241.3,10.8182 C241.516,10.9729 241.795,11.0451 242.135,11.0451 C242.558,11.0451 242.919,10.9729 243.228,10.8182 C243.538,10.6635 243.837,10.4367 244.125,10.1273 L244.125,8.69379 Z" id="Shape" fill="#193E72"/>
            <polygon id="Path" fill="#193E72" points="249.859 0 249.859 12.3135 247.817 12.3135 247.817 0"/>
            <path d="M132.252,29.8658 L130.241,29.8658 C129.859,29.8658 129.581,29.7214 129.416,29.4224 L126.899,25.586 C126.806,25.4416 126.703,25.3385 126.59,25.2766 C126.476,25.2147 126.311,25.1838 126.085,25.1838 L125.136,25.1838 L125.136,29.8658 L122.908,29.8658 L122.908,17.8823 L126.559,17.8823 C127.374,17.8823 128.065,17.9648 128.652,18.1401 C129.24,18.3051 129.715,18.5423 130.086,18.8517 C130.457,19.1508 130.736,19.5221 130.911,19.9449 C131.086,20.3677 131.179,20.8318 131.179,21.3371 C131.179,21.7393 131.117,22.1209 131.004,22.4818 C130.88,22.8428 130.715,23.1625 130.488,23.4616 C130.261,23.7503 129.983,24.0081 129.663,24.235 C129.333,24.4516 128.962,24.6269 128.539,24.761 C128.683,24.8435 128.817,24.9466 128.941,25.06 C129.065,25.1735 129.168,25.3076 129.271,25.4622 L132.272,29.8864 L132.252,29.8658 Z M126.518,23.5853 C126.941,23.5853 127.301,23.5337 127.621,23.4306 C127.931,23.3275 128.188,23.1831 128.395,22.9975 C128.601,22.8119 128.745,22.5953 128.848,22.3375 C128.952,22.0796 129.003,21.8012 129.003,21.5021 C129.003,20.8937 128.807,20.4296 128.405,20.0996 C128.003,19.7696 127.394,19.6149 126.569,19.6149 L125.146,19.6149 L125.146,23.5956 L126.538,23.5956 L126.518,23.5853 Z" id="Shape" fill="#193E72"/>
            <path d="M133.995,25.8751 C134.026,26.3082 134.109,26.6898 134.232,27.0095 C134.356,27.3292 134.511,27.587 134.717,27.7933 C134.913,27.9995 135.15,28.1542 135.429,28.2573 C135.697,28.3605 136.006,28.412 136.336,28.412 C136.666,28.412 136.955,28.3708 137.192,28.2986 C137.429,28.2161 137.646,28.1336 137.821,28.0408 C137.996,27.948 138.161,27.8655 138.296,27.783 C138.43,27.7005 138.564,27.6695 138.687,27.6695 C138.863,27.6695 138.986,27.7314 139.069,27.8655 L139.657,28.608 C139.43,28.8761 139.172,29.0927 138.894,29.2783 C138.615,29.4536 138.316,29.598 138.007,29.7115 C137.697,29.8249 137.388,29.8971 137.068,29.9383 C136.749,29.9796 136.439,30.0002 136.14,30.0002 C135.552,30.0002 134.995,29.8971 134.49,29.7011 C133.985,29.5052 133.541,29.2164 133.16,28.8349 C132.788,28.4533 132.489,27.9789 132.273,27.4117 C132.056,26.8445 131.953,26.1845 131.953,25.4419 C131.953,24.8644 132.046,24.3178 132.232,23.8022 C132.417,23.2866 132.685,22.8431 133.036,22.4719 C133.387,22.0903 133.82,21.7912 134.325,21.5746 C134.83,21.3581 135.398,21.2446 136.037,21.2446 C136.573,21.2446 137.068,21.3271 137.522,21.5024 C137.976,21.6778 138.368,21.9253 138.687,22.2553 C139.017,22.5853 139.265,22.9875 139.451,23.4619 C139.636,23.9363 139.729,24.4829 139.729,25.1016 C139.729,25.411 139.698,25.6173 139.626,25.7307 C139.554,25.8441 139.43,25.8957 139.244,25.8957 L133.985,25.8957 L133.995,25.8751 Z M137.904,24.6375 C137.904,24.3694 137.862,24.1219 137.79,23.8847 C137.718,23.6475 137.605,23.4413 137.45,23.2659 C137.305,23.0906 137.11,22.9462 136.883,22.8431 C136.656,22.74 136.388,22.6884 136.078,22.6884 C135.49,22.6884 135.026,22.8534 134.686,23.1938 C134.346,23.5341 134.129,24.0085 134.036,24.6272 L137.904,24.6272 L137.904,24.6375 Z" id="Shape" fill="#193E72"/>
            <path d="M146.216,23.0184 C146.164,23.1112 146.102,23.1731 146.04,23.204 C145.978,23.2349 145.906,23.2556 145.803,23.2556 C145.7,23.2556 145.597,23.2246 145.483,23.1731 C145.37,23.1215 145.236,23.0596 145.092,22.9874 C144.947,22.9152 144.772,22.8534 144.586,22.8018 C144.39,22.7502 144.174,22.7193 143.906,22.7193 C143.503,22.7193 143.184,22.8018 142.957,22.9771 C142.73,23.1524 142.616,23.369 142.616,23.6475 C142.616,23.8331 142.678,23.9878 142.792,24.1115 C142.905,24.2353 143.07,24.3487 143.266,24.4415 C143.462,24.5344 143.689,24.6169 143.936,24.6994 C144.184,24.7716 144.442,24.8541 144.7,24.9469 C144.957,25.0397 145.205,25.1325 145.463,25.2459 C145.71,25.3594 145.937,25.5038 146.133,25.6791 C146.329,25.8544 146.484,26.0607 146.608,26.3082 C146.731,26.5557 146.783,26.8444 146.783,27.1848 C146.783,27.5973 146.711,27.9685 146.566,28.3192 C146.422,28.6595 146.205,28.9586 145.917,29.2164 C145.628,29.4639 145.277,29.6598 144.854,29.8042 C144.432,29.9486 143.947,30.0105 143.39,30.0105 C143.101,30.0105 142.812,29.9795 142.534,29.928 C142.256,29.8764 141.987,29.8042 141.73,29.7114 C141.472,29.6186 141.235,29.5051 141.018,29.3814 C140.801,29.2576 140.605,29.1133 140.44,28.9689 L140.915,28.1851 C140.977,28.0923 141.049,28.0201 141.131,27.9685 C141.214,27.917 141.317,27.8963 141.451,27.8963 C141.585,27.8963 141.699,27.9376 141.812,27.9995 C141.925,28.0717 142.06,28.1542 142.204,28.2367 C142.348,28.3192 142.524,28.4017 142.73,28.4739 C142.936,28.546 143.184,28.577 143.493,28.577 C143.741,28.577 143.947,28.546 144.122,28.4945 C144.297,28.4429 144.442,28.3604 144.555,28.2676 C144.669,28.1748 144.751,28.0613 144.803,27.9376 C144.854,27.8138 144.885,27.6798 144.885,27.556 C144.885,27.3601 144.823,27.1951 144.71,27.0713 C144.586,26.9476 144.431,26.8341 144.236,26.7413 C144.04,26.6485 143.813,26.566 143.565,26.4835 C143.318,26.4113 143.06,26.3288 142.792,26.236 C142.534,26.1432 142.276,26.04 142.018,25.9266 C141.771,25.8028 141.544,25.6585 141.348,25.4728 C141.152,25.2872 140.997,25.0706 140.874,24.8025 C140.75,24.5344 140.698,24.2147 140.698,23.8434 C140.698,23.4928 140.77,23.1628 140.905,22.8534 C141.039,22.544 141.245,22.2655 141.513,22.0283 C141.781,21.7911 142.111,21.6055 142.513,21.4611 C142.916,21.3168 143.38,21.2549 143.906,21.2549 C144.493,21.2549 145.019,21.3477 145.504,21.5436 C145.989,21.7396 146.381,21.9871 146.711,22.3068 L146.247,23.0493 L146.216,23.0184 Z" id="Path" fill="#193E72"/>
            <path d="M149.64,25.8751 C149.671,26.3082 149.753,26.6898 149.877,27.0095 C150.001,27.3292 150.155,27.587 150.362,27.7933 C150.557,27.9995 150.795,28.1542 151.073,28.2573 C151.341,28.3605 151.651,28.412 151.981,28.412 C152.311,28.412 152.599,28.3708 152.837,28.2986 C153.074,28.2161 153.29,28.1336 153.466,28.0408 C153.641,27.948 153.806,27.8655 153.94,27.783 C154.074,27.7005 154.208,27.6695 154.332,27.6695 C154.507,27.6695 154.631,27.7314 154.714,27.8655 L155.301,28.608 C155.074,28.8761 154.817,29.0927 154.538,29.2783 C154.26,29.4536 153.961,29.598 153.651,29.7115 C153.342,29.8249 153.033,29.8971 152.713,29.9383 C152.393,29.9796 152.084,30.0002 151.785,30.0002 C151.197,30.0002 150.64,29.8971 150.135,29.7011 C149.629,29.5052 149.186,29.2164 148.804,28.8349 C148.433,28.4533 148.134,27.9789 147.917,27.4117 C147.701,26.8445 147.598,26.1845 147.598,25.4419 C147.598,24.8644 147.69,24.3178 147.876,23.8022 C148.062,23.2866 148.33,22.8431 148.681,22.4719 C149.031,22.0903 149.464,21.7912 149.97,21.5746 C150.475,21.3581 151.042,21.2446 151.682,21.2446 C152.218,21.2446 152.713,21.3271 153.167,21.5024 C153.62,21.6778 154.012,21.9253 154.332,22.2553 C154.662,22.5853 154.909,22.9875 155.095,23.4619 C155.281,23.9363 155.374,24.4829 155.374,25.1016 C155.374,25.411 155.343,25.6173 155.27,25.7307 C155.198,25.8441 155.074,25.8957 154.889,25.8957 L149.629,25.8957 L149.64,25.8751 Z M153.548,24.6375 C153.548,24.3694 153.507,24.1219 153.435,23.8847 C153.363,23.6475 153.249,23.4413 153.094,23.2659 C152.95,23.0906 152.754,22.9462 152.527,22.8431 C152.3,22.74 152.032,22.6884 151.723,22.6884 C151.135,22.6884 150.671,22.8534 150.331,23.1938 C149.99,23.5341 149.774,24.0085 149.681,24.6272 L153.548,24.6272 L153.548,24.6375 Z" id="Shape" fill="#193E72"/>
            <path d="M156.466,22.554 C157.446,21.6568 158.622,21.2134 159.993,21.2134 C160.488,21.2134 160.932,21.2959 161.324,21.4609 C161.715,21.6259 162.045,21.8528 162.314,22.1415 C162.582,22.4303 162.788,22.7809 162.932,23.1831 C163.077,23.5853 163.149,24.0288 163.149,24.5135 L163.149,29.8865 L162.221,29.8865 C162.025,29.8865 161.88,29.8555 161.777,29.804 C161.674,29.7524 161.592,29.6286 161.53,29.4533 L161.344,28.8449 C161.128,29.0408 160.921,29.2058 160.715,29.3502 C160.509,29.4946 160.292,29.6183 160.076,29.7215 C159.859,29.8246 159.622,29.8968 159.364,29.9483 C159.117,29.9999 158.838,30.0308 158.529,30.0308 C158.168,30.0308 157.838,29.9793 157.539,29.8865 C157.24,29.7936 156.972,29.6493 156.755,29.4533 C156.538,29.2574 156.363,29.0202 156.239,28.7314 C156.116,28.4427 156.054,28.1127 156.054,27.7311 C156.054,27.5145 156.095,27.2979 156.157,27.0917 C156.229,26.8751 156.342,26.6792 156.507,26.4832 C156.672,26.2873 156.879,26.112 157.137,25.9367 C157.394,25.7613 157.714,25.617 158.096,25.4932 C158.477,25.3694 158.91,25.2663 159.416,25.1838 C159.921,25.1013 160.488,25.0601 161.138,25.0394 L161.138,24.5444 C161.138,23.9772 161.014,23.5544 160.777,23.2759 C160.529,22.9975 160.179,22.8634 159.725,22.8634 C159.395,22.8634 159.117,22.9047 158.9,22.9769 C158.683,23.0491 158.488,23.1419 158.323,23.2347 C158.158,23.3275 158.003,23.4203 157.869,23.4925 C157.735,23.575 157.58,23.606 157.415,23.606 C157.271,23.606 157.147,23.5647 157.054,23.4925 C156.961,23.4203 156.879,23.3275 156.817,23.2347 L156.456,22.5747 L156.466,22.554 Z M161.159,26.246 C160.571,26.277 160.065,26.3285 159.663,26.4007 C159.261,26.4729 158.931,26.5657 158.694,26.6895 C158.446,26.8029 158.281,26.937 158.168,27.0917 C158.065,27.2464 158.013,27.4114 158.013,27.597 C158.013,27.958 158.116,28.2158 158.333,28.3705 C158.549,28.5252 158.828,28.5974 159.168,28.5974 C159.591,28.5974 159.952,28.5252 160.261,28.3705 C160.571,28.2158 160.87,27.9889 161.159,27.6795 L161.159,26.246 Z" id="Shape" fill="#193E72"/>
            <path d="M166.758,22.8428 C167.026,22.3375 167.336,21.9353 167.707,21.6465 C168.078,21.3578 168.501,21.2134 168.996,21.2134 C169.388,21.2134 169.708,21.2959 169.945,21.4712 L169.811,23.0078 C169.78,23.1109 169.739,23.1831 169.687,23.2244 C169.635,23.2656 169.563,23.2863 169.47,23.2863 C169.378,23.2863 169.264,23.2759 169.099,23.245 C168.934,23.2141 168.779,23.2038 168.625,23.2038 C168.398,23.2038 168.192,23.2347 168.016,23.3069 C167.841,23.3688 167.676,23.4719 167.542,23.5956 C167.398,23.7194 167.274,23.8741 167.171,24.0494 C167.068,24.2247 166.964,24.431 166.872,24.6579 L166.872,29.8968 L164.819,29.8968 L164.819,21.3887 L166.026,21.3887 C166.232,21.3887 166.387,21.4299 166.469,21.5021 C166.552,21.5743 166.603,21.7084 166.634,21.9043 L166.758,22.8634 L166.758,22.8428 Z" id="Path" fill="#193E72"/>
            <path d="M176.607,23.1624 C176.545,23.2449 176.483,23.2965 176.432,23.3481 C176.37,23.3893 176.287,23.41 176.174,23.41 C176.06,23.41 175.968,23.379 175.864,23.3171 C175.761,23.2553 175.648,23.1831 175.503,23.1006 C175.359,23.0181 175.204,22.9459 175.008,22.884 C174.812,22.8221 174.586,22.7912 174.297,22.7912 C173.936,22.7912 173.627,22.8531 173.348,22.9871 C173.08,23.1212 172.853,23.3068 172.667,23.544 C172.492,23.7915 172.358,24.0803 172.265,24.4309 C172.172,24.7712 172.131,25.1631 172.131,25.6066 C172.131,26.05 172.183,26.4625 172.276,26.8132 C172.368,27.1638 172.513,27.4629 172.698,27.7001 C172.884,27.9373 173.101,28.1229 173.358,28.2467 C173.616,28.3704 173.915,28.4323 174.235,28.4323 C174.555,28.4323 174.823,28.391 175.029,28.3085 C175.235,28.226 175.4,28.1435 175.534,28.0404 C175.668,27.9476 175.792,27.8548 175.895,27.7723 C175.998,27.6898 176.112,27.6485 176.236,27.6485 C176.401,27.6485 176.524,27.7104 176.607,27.8445 L177.195,28.587 C176.968,28.8551 176.72,29.0717 176.452,29.2573 C176.184,29.4326 175.916,29.577 175.627,29.6905 C175.338,29.7936 175.05,29.8761 174.751,29.9173 C174.452,29.9586 174.152,29.9792 173.853,29.9792 C173.327,29.9792 172.832,29.8761 172.368,29.6801 C171.904,29.4842 171.502,29.1954 171.151,28.8242 C170.801,28.4529 170.533,27.9888 170.326,27.4423 C170.12,26.8957 170.027,26.2769 170.027,25.586 C170.027,24.9569 170.12,24.3794 170.295,23.8534 C170.471,23.3274 170.739,22.8634 171.09,22.4715 C171.44,22.0796 171.863,21.7805 172.379,21.5536 C172.894,21.3371 173.482,21.2236 174.152,21.2236 C174.823,21.2236 175.349,21.3268 175.823,21.533 C176.298,21.7393 176.731,22.028 177.112,22.4096 L176.576,23.1521 L176.607,23.1624 Z" id="Path" fill="#193E72"/>
            <path d="M180.31,22.2755 C180.64,21.9661 181,21.7186 181.403,21.5227 C181.805,21.3267 182.269,21.2339 182.805,21.2339 C183.269,21.2339 183.682,21.3164 184.043,21.4711 C184.404,21.6258 184.703,21.8527 184.94,22.1311 C185.177,22.4199 185.363,22.7602 185.487,23.1521 C185.61,23.544 185.672,23.9771 185.672,24.4618 L185.672,29.8761 L183.62,29.8761 L183.62,24.4618 C183.62,23.9462 183.496,23.544 183.269,23.2552 C183.032,22.9665 182.671,22.8324 182.186,22.8324 C181.836,22.8324 181.495,22.9149 181.196,23.0696 C180.897,23.2243 180.598,23.4512 180.32,23.7193 L180.32,29.8658 L178.268,29.8658 L178.268,17.5522 L180.32,17.5522 L180.32,22.2755 L180.31,22.2755 Z" id="Path" fill="#193E72"/>
            <path d="M199.688,27.0404 C199.811,27.0404 199.915,27.092 200.007,27.1848 L200.884,28.1336 C200.399,28.7318 199.801,29.1958 199.09,29.5155 C198.378,29.8352 197.532,30.0002 196.532,30.0002 C195.645,30.0002 194.841,29.8455 194.129,29.5465 C193.418,29.2474 192.809,28.8246 192.314,28.278 C191.809,27.7417 191.427,27.092 191.159,26.3392 C190.891,25.5863 190.757,24.7716 190.757,23.8744 C190.757,22.9772 190.901,22.1522 191.19,21.3993 C191.479,20.6465 191.881,20.0071 192.407,19.4605 C192.933,18.9243 193.552,18.5014 194.274,18.192 C194.995,17.893 195.8,17.7383 196.676,17.7383 C197.553,17.7383 198.326,17.8827 198.997,18.1714 C199.677,18.4602 200.245,18.8314 200.729,19.2955 L199.987,20.3268 C199.946,20.3887 199.884,20.4506 199.822,20.5021 C199.75,20.5537 199.657,20.5743 199.533,20.5743 C199.451,20.5743 199.368,20.5537 199.275,20.5021 C199.182,20.4506 199.09,20.399 198.986,20.3268 C198.883,20.2546 198.76,20.1824 198.626,20.0999 C198.491,20.0174 198.326,19.9452 198.141,19.873 C197.955,19.8008 197.749,19.7493 197.512,19.6977 C197.275,19.6462 196.996,19.6255 196.676,19.6255 C196.14,19.6255 195.645,19.7183 195.202,19.9143 C194.758,20.0999 194.377,20.3784 194.057,20.7393 C193.737,21.1003 193.49,21.5437 193.314,22.0697 C193.139,22.5956 193.046,23.1835 193.046,23.8538 C193.046,24.5241 193.139,25.1223 193.335,25.6482 C193.531,26.1742 193.789,26.6176 194.109,26.9786 C194.439,27.3395 194.82,27.618 195.264,27.8036 C195.707,27.9995 196.181,28.0924 196.687,28.0924 C196.986,28.0924 197.264,28.0717 197.512,28.0408 C197.759,28.0099 197.986,27.9583 198.192,27.8861 C198.399,27.8139 198.595,27.7211 198.78,27.6077 C198.966,27.4942 199.151,27.3498 199.327,27.1848 C199.378,27.1333 199.44,27.092 199.502,27.0611 C199.564,27.0301 199.626,27.0198 199.688,27.0198 L199.688,27.0404 Z" id="Path" fill="#193E72"/>
            <path d="M203.255,25.8751 C203.286,26.3082 203.369,26.6898 203.482,27.0095 C203.596,27.3292 203.761,27.587 203.967,27.7933 C204.163,27.9995 204.4,28.1542 204.679,28.2573 C204.957,28.3605 205.256,28.412 205.586,28.412 C205.916,28.412 206.205,28.3708 206.442,28.2986 C206.679,28.2161 206.896,28.1336 207.071,28.0408 C207.246,27.948 207.411,27.8655 207.546,27.783 C207.68,27.7005 207.814,27.6695 207.937,27.6695 C208.113,27.6695 208.236,27.7314 208.319,27.8655 L208.907,28.608 C208.68,28.8761 208.422,29.0927 208.144,29.2783 C207.865,29.4536 207.566,29.598 207.257,29.7115 C206.947,29.8146 206.638,29.8971 206.318,29.9383 C205.999,29.9796 205.689,30.0002 205.39,30.0002 C204.802,30.0002 204.245,29.8971 203.74,29.7011 C203.235,29.5052 202.791,29.2164 202.41,28.8349 C202.038,28.4533 201.739,27.9789 201.523,27.4117 C201.306,26.8445 201.203,26.1845 201.203,25.4419 C201.203,24.8644 201.296,24.3178 201.482,23.8022 C201.667,23.2866 201.935,22.8431 202.286,22.4719 C202.637,22.0903 203.07,21.7912 203.575,21.5746 C204.08,21.3581 204.648,21.2446 205.287,21.2446 C205.823,21.2446 206.318,21.3271 206.772,21.5024 C207.226,21.6778 207.618,21.9253 207.937,22.2553 C208.267,22.5853 208.515,22.9875 208.701,23.4619 C208.886,23.9363 208.979,24.4829 208.979,25.1016 C208.979,25.411 208.948,25.6173 208.876,25.7307 C208.804,25.8441 208.68,25.8957 208.494,25.8957 L203.235,25.8957 L203.255,25.8751 Z M207.164,24.6375 C207.164,24.3694 207.123,24.1219 207.05,23.8847 C206.978,23.6475 206.865,23.4413 206.71,23.2659 C206.566,23.0906 206.37,22.9462 206.143,22.8431 C205.916,22.74 205.648,22.6884 205.339,22.6884 C204.751,22.6884 204.287,22.8534 203.946,23.1938 C203.606,23.5341 203.389,24.0085 203.297,24.6272 L207.164,24.6272 L207.164,24.6375 Z" id="Shape" fill="#193E72"/>
            <path d="M212.197,22.41 C212.372,22.2347 212.548,22.08 212.744,21.9356 C212.929,21.7912 213.135,21.6675 213.352,21.5643 C213.569,21.4612 213.795,21.3787 214.033,21.3271 C214.28,21.2653 214.538,21.2446 214.827,21.2446 C215.291,21.2446 215.703,21.3271 216.064,21.4818 C216.425,21.6365 216.724,21.8634 216.961,22.1418 C217.199,22.4306 217.384,22.7709 217.508,23.1628 C217.632,23.5547 217.694,23.9878 217.694,24.4725 L217.694,29.8868 L215.641,29.8868 L215.641,24.4725 C215.641,23.9569 215.518,23.5547 215.291,23.2659 C215.054,22.9772 214.693,22.8431 214.208,22.8431 C213.857,22.8431 213.517,22.9256 213.218,23.0803 C212.919,23.235 212.62,23.4619 212.341,23.73 L212.341,29.8765 L210.289,29.8765 L210.289,21.3684 L211.537,21.3684 C211.805,21.3684 211.98,21.4921 212.063,21.7396 L212.207,22.41 L212.197,22.41 Z" id="Path" fill="#193E72"/>
            <path d="M222.097,29.9998 C221.355,29.9998 220.788,29.7935 220.396,29.3707 C220.004,28.9582 219.808,28.3807 219.808,27.6381 L219.808,22.8942 L218.942,22.8942 C218.828,22.8942 218.735,22.853 218.663,22.7911 C218.581,22.7189 218.55,22.6158 218.55,22.4714 L218.55,21.6567 L219.921,21.4298 L220.355,19.1094 C220.385,18.996 220.437,18.9135 220.509,18.8516 C220.581,18.7897 220.685,18.7588 220.808,18.7588 L221.871,18.7588 L221.871,21.4401 L224.139,21.4401 L224.139,22.8942 L221.871,22.8942 L221.871,27.5041 C221.871,27.7722 221.932,27.9785 222.066,28.1228 C222.19,28.2672 222.376,28.3497 222.603,28.3497 C222.727,28.3497 222.84,28.3394 222.922,28.3085 C223.005,28.2775 223.087,28.2466 223.149,28.2156 C223.211,28.1847 223.273,28.1538 223.325,28.1228 C223.376,28.0919 223.428,28.0816 223.469,28.0816 C223.531,28.0816 223.582,28.0919 223.613,28.1228 C223.655,28.1538 223.696,28.195 223.737,28.2569 L224.346,29.2469 C224.047,29.4944 223.706,29.6801 223.314,29.8141 C222.922,29.9482 222.531,29.9998 222.108,29.9998 L222.097,29.9998 Z" id="Path" fill="#193E72"/>
            <path d="M227.119,22.8428 C227.388,22.3375 227.697,21.9353 228.068,21.6465 C228.44,21.3578 228.862,21.2134 229.357,21.2134 C229.749,21.2134 230.069,21.2959 230.306,21.4712 L230.172,23.0078 C230.141,23.1109 230.1,23.1831 230.048,23.2244 C229.997,23.2656 229.925,23.2863 229.832,23.2863 C229.739,23.2863 229.625,23.2759 229.46,23.245 C229.295,23.2141 229.141,23.2038 228.986,23.2038 C228.759,23.2038 228.553,23.2347 228.378,23.3069 C228.202,23.3688 228.037,23.4719 227.903,23.5956 C227.759,23.7194 227.635,23.8741 227.532,24.0494 C227.429,24.2247 227.326,24.431 227.233,24.6579 L227.233,29.8968 L225.181,29.8968 L225.181,21.3887 L226.387,21.3887 C226.594,21.3887 226.748,21.4299 226.831,21.5021 C226.913,21.5743 226.965,21.7084 226.996,21.9043 L227.119,22.8634 L227.119,22.8428 Z" id="Path" fill="#193E72"/>
            <path d="M232.451,25.8751 C232.482,26.3082 232.564,26.6898 232.678,27.0095 C232.791,27.3292 232.956,27.587 233.162,27.7933 C233.358,27.9995 233.595,28.1542 233.874,28.2573 C234.152,28.3605 234.451,28.412 234.781,28.412 C235.111,28.412 235.4,28.3708 235.637,28.2986 C235.875,28.2161 236.091,28.1336 236.266,28.0408 C236.442,27.948 236.607,27.8655 236.741,27.783 C236.875,27.7005 237.009,27.6695 237.133,27.6695 C237.308,27.6695 237.432,27.7314 237.514,27.8655 L238.102,28.608 C237.875,28.8761 237.617,29.0927 237.339,29.2783 C237.061,29.4536 236.761,29.598 236.452,29.7115 C236.143,29.8146 235.833,29.8971 235.514,29.9383 C235.194,29.9796 234.885,30.0002 234.585,30.0002 C233.998,30.0002 233.441,29.8971 232.935,29.7011 C232.43,29.5052 231.987,29.2164 231.605,28.8349 C231.234,28.4533 230.935,27.9789 230.718,27.4117 C230.502,26.8445 230.398,26.1845 230.398,25.4419 C230.398,24.8644 230.491,24.3178 230.677,23.8022 C230.863,23.2866 231.131,22.8431 231.481,22.4719 C231.832,22.0903 232.265,21.7912 232.77,21.5746 C233.276,21.3581 233.843,21.2446 234.482,21.2446 C235.019,21.2446 235.514,21.3271 235.967,21.5024 C236.421,21.6778 236.813,21.9253 237.133,22.2553 C237.463,22.5853 237.71,22.9875 237.896,23.4619 C238.081,23.9363 238.174,24.4829 238.174,25.1016 C238.174,25.411 238.143,25.6173 238.071,25.7307 C237.999,25.8441 237.875,25.8957 237.69,25.8957 L232.43,25.8957 L232.451,25.8751 Z M236.359,24.6375 C236.359,24.3694 236.318,24.1219 236.246,23.8847 C236.174,23.6475 236.06,23.4413 235.905,23.2659 C235.761,23.0906 235.565,22.9462 235.338,22.8431 C235.111,22.74 234.843,22.6884 234.534,22.6884 C233.946,22.6884 233.482,22.8534 233.142,23.1938 C232.801,23.5341 232.585,24.0085 232.492,24.6272 L236.359,24.6272 L236.359,24.6375 Z" id="Shape" fill="#193E72"/>
            <polygon id="Path" fill="#193E72" points="20.0688 0.30957 20.0688 18.5117 6.06394 0.30957 0 0.30957 0 29.8661 6.48676 29.8661 6.48676 11.0762 20.966 29.8661 26.5555 29.8661 26.5555 0.30957"/>
            <polygon id="Path" fill="#193E72" points="38.3843 0.30957 31.8047 0.30957 31.8047 29.8661 38.3843 29.8661"/>
            <polygon id="Path" fill="#193E72" points="62.3309 0.30957 62.3309 12.2106 50.2134 12.2106 50.2134 0.30957 43.6338 0.30957 43.6338 29.8661 50.2134 29.8661 50.2134 18.5117 62.3309 18.5117 62.3309 29.8661 68.9105 29.8661 68.9105 0.30957"/>
            <path d="M89.0715,12.2003 L88.7415,12.2003 L80.7491,12.2003 L80.7491,6.17757 L89.0715,6.17757 C90.4947,6.22913 92.4954,6.78602 92.4954,9.18891 C92.4954,11.5918 90.4947,12.1487 89.0715,12.1899 M92.4438,17.4289 C96.1977,16.6451 98.9821,13.7472 98.9821,8.98265 C98.9821,3.67155 95.2695,0.464263 90.6391,0.319883 L74.1592,0.30957 L74.1592,29.8661 L80.7284,29.8661 L80.7284,18.5117 L85.5961,18.5117 L92.5985,29.8661 L100.117,29.8661 L92.4438,17.4392 L92.4438,17.4289 Z" id="Shape" fill="#193E72"/>
            <polygon id="Path" fill="#EA5D4E" points="112.503 0.30957 109.894 0.30957 109.894 29.8558 112.503 29.8558"/>
        </g>
    </g>
</svg>