<svg version="1.1" id="Layer_1" xmlns="http://www.w3.org/2000/svg" xmlns:xlink="http://www.w3.org/1999/xlink" x="0px" y="0px"
	 width="100%" viewBox="0 0 768 458" enable-background="new 0 0 768 458" xml:space="preserve">
<path fill="none" opacity="1.000000" stroke="none" 
	d="
M495.000000,459.000000 
	C330.000000,459.000000 165.500000,459.000000 1.000000,459.000000 
	C1.000000,306.333344 1.000000,153.666672 1.000000,1.000000 
	C257.000000,1.000000 513.000000,1.000000 769.000000,1.000000 
	C769.000000,153.666672 769.000000,306.333344 769.000000,459.000000 
	C677.833313,459.000000 586.666687,459.000000 495.000000,459.000000 
M268.986206,391.885803 
	C269.307892,394.011505 269.664246,396.132629 269.946075,398.263611 
	C274.336060,431.455536 308.170776,454.112000 341.138153,446.550537 
	C370.739044,439.761230 391.055054,410.357544 386.206787,379.850342 
	C381.826050,352.284943 358.292877,330.793427 329.320862,329.987457 
	C318.767090,329.693878 309.047913,332.903625 299.056580,336.053955 
	C297.051636,333.754333 295.046692,331.454742 293.247925,328.495483 
	C293.893433,327.984039 294.491211,327.393097 295.191345,326.972687 
	C316.457886,314.202667 327.294922,288.061249 321.401611,263.703766 
	C312.424133,226.599136 274.087830,208.094025 238.095978,223.099503 
	C236.397919,220.713226 234.699860,218.326950 233.297455,215.343964 
	C233.761581,214.868652 234.181808,214.338593 234.696198,213.925949 
	C253.341171,198.969101 260.806885,179.608398 256.919495,156.106873 
	C252.677460,130.461380 229.670242,109.799500 203.966156,108.072273 
	C164.539474,105.422935 134.056290,139.091370 141.115829,177.914627 
	C144.208939,194.924942 153.157639,208.312729 168.174210,217.741211 
	C166.765106,219.850937 165.356003,221.960678 163.154587,224.167892 
	C161.885529,223.842026 160.558990,223.657455 159.356384,223.168228 
	C148.538834,218.767471 137.496841,216.826675 125.778236,218.849304 
	C103.958015,222.615448 88.519432,234.804565 80.379623,254.989563 
	C72.081032,275.568298 74.848564,295.472595 88.695183,313.195221 
	C92.619949,318.218597 97.517899,322.481659 101.250107,327.123413 
	C99.027138,329.655396 96.804169,332.187378 93.775864,334.370178 
	C82.131767,330.171783 70.313431,328.688934 58.049301,331.437897 
	C27.842714,338.208710 7.951598,367.963470 12.796128,398.091614 
	C17.272541,425.930450 41.718292,448.008270 69.745132,447.948975 
	C93.145630,447.899506 110.883797,437.532074 122.740952,417.377319 
	C134.266006,397.787018 132.170410,370.129272 117.172142,352.848877 
	C111.609848,346.440247 104.324463,341.527130 98.051445,335.263947 
	C99.347176,332.530212 100.642906,329.796478 102.677719,326.907684 
	C103.590248,327.267548 104.572800,327.509827 105.404587,328.005219 
	C114.625450,333.497406 124.668762,335.861206 135.317642,335.999939 
	C145.509506,336.132690 154.847107,332.771576 163.826447,329.780914 
	C165.218506,332.887970 166.610580,335.995056 167.913773,339.785004 
	C166.935715,340.850159 166.006027,341.965088 164.971146,342.971832 
	C160.712418,347.114807 155.877045,350.795898 152.234863,355.419708 
	C134.245392,378.257538 136.219635,411.806396 156.933060,432.276001 
	C171.555130,446.725891 189.249588,452.203186 209.797455,449.059357 
	C232.258057,445.622955 254.249390,423.568573 257.048126,401.015656 
	C257.467590,397.635376 258.325409,394.309509 259.895569,391.009796 
	C262.927460,391.018524 265.959351,391.027283 268.986206,391.885803 
M552.125061,196.718933 
	C564.316101,188.377930 564.070496,162.875610 557.955811,153.523193 
	C552.173767,144.679535 537.908569,138.413467 524.171570,150.629623 
	C524.000610,148.796051 523.843750,147.113617 523.692139,145.487579 
	C520.532654,145.487579 517.784485,145.487579 514.894165,145.487579 
	C514.894165,170.471390 514.894165,195.175842 514.894165,219.884277 
	C518.073425,219.884277 520.970032,219.884277 524.091248,219.884277 
	C524.091248,215.439178 524.091248,211.300064 524.091248,207.160934 
	C524.091248,203.078964 524.091248,198.996994 524.091248,194.600006 
	C534.419922,202.066711 542.101257,202.684097 552.125061,196.718933 
M645.495239,310.175415 
	C656.613281,318.841797 672.346069,315.005005 677.966919,301.983459 
	C681.989685,292.663879 682.304993,282.850403 679.462769,273.188293 
	C676.237305,262.223145 666.317017,256.055511 655.175476,258.328674 
	C650.882568,259.204529 646.987061,262.028229 643.064697,263.891235 
	C642.979553,262.800568 642.853516,261.184845 642.714233,259.399170 
	C639.715210,259.399170 636.937866,259.399170 633.888367,259.399170 
	C633.888367,284.295593 633.888367,309.029114 633.888367,333.972107 
	C636.901367,333.972107 639.806580,333.972107 643.091248,333.972107 
	C643.091248,332.128754 643.091248,330.500244 643.091248,328.871704 
	C643.091309,322.881073 643.054443,316.889709 643.172119,310.901398 
	C643.180176,310.489258 644.342224,310.099762 645.495239,310.175415 
M491.233612,416.653931 
	C498.163788,406.181641 498.550964,394.725220 495.409729,383.156830 
	C492.693634,373.154144 484.035797,366.951355 474.109222,368.125854 
	C468.859619,368.746979 463.868286,371.550964 459.009369,373.280823 
	C458.970306,372.770966 458.846802,371.159149 458.712250,369.403076 
	C455.684937,369.403076 452.912811,369.403076 449.878784,369.403076 
	C449.878784,394.328705 449.878784,419.061157 449.878784,443.959229 
	C452.919220,443.959229 455.826721,443.959229 459.091309,443.959229 
	C459.091309,439.607941 459.091278,435.479706 459.091278,431.351471 
	C459.091278,427.161957 459.091309,422.972443 459.091309,418.183685 
	C469.902802,427.407196 481.485779,426.805939 491.233612,416.653931 
M410.979950,424.496399 
	C416.364624,422.431671 421.749329,420.366943 427.201172,418.276489 
	C429.925842,424.386627 433.899231,425.858704 441.684570,422.849884 
	C441.684570,420.767487 441.684570,418.662872 441.684570,415.935944 
	C435.937317,417.594147 435.875824,414.105560 435.926636,410.169525 
	C436.042572,401.182678 436.039001,392.192383 435.935547,383.205170 
	C435.852722,376.007233 433.058197,372.029205 426.359192,369.666718 
	C419.248016,367.158875 411.967621,366.996429 404.802216,369.335724 
	C396.958191,371.896545 393.712250,377.052826 394.109406,385.757782 
	C396.862549,385.757782 399.622711,385.757782 402.313873,385.757782 
	C405.136292,376.271637 415.343567,372.519806 423.267578,378.318420 
	C425.099213,379.658752 426.387390,383.247192 426.063599,385.537933 
	C425.816956,387.283020 422.826782,389.454041 420.703766,389.963806 
	C414.907501,391.355530 408.824280,391.563080 403.039886,392.990326 
	C395.498138,394.851196 391.467621,399.762939 390.938782,406.417542 
	C389.995575,418.286255 397.470703,425.386261 410.979950,424.496399 
M308.785522,186.215347 
	C309.111603,184.834808 309.437714,183.454285 309.775330,182.025085 
	C301.029205,181.296860 301.029205,181.296860 299.125854,184.649017 
	C295.356049,191.288391 288.417480,194.033417 281.220825,191.732590 
	C275.141113,189.788834 271.363373,182.828323 272.417603,174.870178 
	C285.050354,174.870178 297.758209,174.870178 310.825806,174.870178 
	C310.506195,170.705154 310.472748,167.040985 309.901978,163.462540 
	C308.443146,154.316116 303.438507,147.874512 294.435822,145.174561 
	C285.608551,142.527206 277.241425,143.544037 270.258942,150.061844 
	C261.791565,157.965714 260.437744,168.124939 261.767792,178.961823 
	C263.190796,190.556351 270.601471,198.695480 281.309479,200.577576 
	C293.282867,202.682083 303.025024,197.750153 308.785522,186.215347 
M570.731567,178.750458 
	C573.005493,193.373993 582.678162,201.645935 596.617371,200.887772 
	C608.580200,200.237106 617.885864,192.095566 618.286499,181.929398 
	C609.987549,181.410767 609.987488,181.410751 608.521606,183.902237 
	C604.183167,191.276108 598.024536,193.986664 590.521301,191.824524 
	C584.436951,190.071228 580.759888,183.707291 581.102356,175.011963 
	C593.822632,175.011963 606.570190,175.011963 619.810791,175.011963 
	C619.484741,170.729935 619.475708,166.903824 618.854126,163.179993 
	C617.323792,154.012680 612.163940,147.670898 603.126831,145.078720 
	C594.250183,142.532578 585.903015,143.681534 578.987793,150.301819 
	C571.074036,157.877914 569.590210,167.524445 570.731567,178.750458 
M286.829987,52.869820 
	C283.373077,43.578087 276.354279,38.951611 266.797455,38.066582 
	C256.767670,37.137756 248.618057,40.892704 243.685608,49.709499 
	C237.701416,60.406357 237.510056,71.732811 242.882141,82.748932 
	C247.322327,91.854088 257.660614,96.402885 268.208954,94.637901 
	C279.018066,92.829285 285.725250,86.428680 287.620087,75.705414 
	C284.187836,76.865677 280.141022,73.252754 277.444275,77.998756 
	C273.297211,85.297157 266.838745,88.031128 259.395660,85.796249 
	C253.316940,83.971031 249.562744,77.287193 250.251480,68.929649 
	C262.938690,68.929649 275.675446,68.929649 289.171417,68.929649 
	C288.385468,63.436855 287.685425,58.544518 286.829987,52.869820 
M695.140503,306.318726 
	C702.694763,315.060699 712.205444,316.665802 722.756836,313.494324 
	C731.308655,310.923859 735.802917,304.616028 738.097717,295.399017 
	C734.131042,296.945221 730.018311,293.230011 727.351746,298.114838 
	C723.404236,305.346069 716.687805,308.067047 709.291626,305.762085 
	C703.212891,303.867676 699.458252,297.056427 700.333740,288.911499 
	C712.988586,288.911499 725.703674,288.911499 738.843201,288.911499 
	C738.496704,284.597229 738.476868,280.764313 737.832703,277.039368 
	C736.251465,267.895630 731.059265,261.601807 722.023071,259.050079 
	C713.143372,256.542511 704.869995,257.775635 697.919800,264.335724 
	C687.699097,273.982880 686.236389,293.450989 695.140503,306.318726 
M387.038849,307.445740 
	C394.991364,315.365295 404.367859,316.675568 414.635406,313.162292 
	C422.732422,310.391663 426.860687,304.226685 429.102631,295.446320 
	C425.150635,296.918335 421.063019,293.239288 418.386475,298.070557 
	C414.370087,305.320404 407.753143,308.049957 400.342468,305.783234 
	C394.287720,303.931244 390.533844,297.197113 391.272522,288.942932 
	C403.942352,288.942932 416.663330,288.942932 429.786591,288.942932 
	C429.549133,285.475220 429.417175,282.513824 429.131989,279.567261 
	C428.020081,268.077942 421.437500,260.530823 410.688477,258.342712 
	C400.008240,256.168549 389.157013,260.539978 384.407043,270.161438 
	C378.279541,282.573212 378.114532,295.101837 387.038849,307.445740 
M228.293991,65.580917 
	C228.195602,61.255615 228.343674,56.907581 227.947311,52.609760 
	C227.132690,43.776749 221.450577,38.622448 212.608749,37.937325 
	C205.498672,37.386387 199.304916,39.169334 193.816330,45.225441 
	C193.816330,35.923592 193.816330,27.659748 193.816330,19.365444 
	C190.458237,19.365444 187.434723,19.365444 184.546783,19.365444 
	C184.546783,44.108593 184.546783,68.470024 184.546783,92.703217 
	C187.849594,92.703217 190.763855,92.703217 193.931519,92.703217 
	C193.931519,83.097504 193.826294,73.797348 193.990372,64.501938 
	C194.045486,61.379356 194.380569,58.143242 195.299072,55.179478 
	C197.109650,49.337135 203.643570,45.771400 210.031540,46.654018 
	C215.795425,47.450409 217.850098,49.918453 218.274612,57.672459 
	C218.628998,64.145470 218.499695,70.646034 218.542740,77.134666 
	C218.577484,82.370445 218.549774,87.606636 218.549774,92.749420 
	C222.195374,92.749420 225.117126,92.749420 228.293945,92.749420 
	C228.293945,83.845726 228.293945,75.203163 228.293991,65.580917 
M326.171692,297.495361 
	C326.171692,302.596497 326.171692,307.697632 326.171692,312.750610 
	C329.743988,312.750610 332.670166,312.750610 335.959259,312.750610 
	C335.959259,302.871216 335.826508,293.247589 336.036011,283.631439 
	C336.103333,280.540375 336.652435,277.313538 337.720337,274.421783 
	C339.790955,268.814667 346.155121,265.700470 352.396973,266.715057 
	C357.887207,267.607452 359.768066,270.030334 360.280975,277.542847 
	C360.575195,281.852020 360.518555,286.187988 360.539734,290.512299 
	C360.576111,297.941223 360.549805,305.370453 360.549805,312.811218 
	C364.089874,312.811218 367.036469,312.811218 370.007568,312.811218 
	C370.007568,299.313477 370.352386,286.004791 369.886414,272.724518 
	C369.575439,263.860809 363.514160,258.607574 354.724457,257.956635 
	C347.640198,257.431976 341.309662,258.894897 335.745819,265.690399 
	C335.745819,255.857162 335.745819,247.478409 335.745819,239.318695 
	C332.317474,239.318695 329.396759,239.318695 326.171692,239.318695 
	C326.171692,258.599152 326.171692,277.548248 326.171692,297.495361 
M386.055756,147.449142 
	C375.864868,154.964706 374.216522,165.658035 374.918640,177.256256 
	C375.720703,190.505814 383.971466,199.674286 396.205261,200.828934 
	C410.444336,202.172867 420.808655,194.988037 423.725037,181.291138 
	C424.648895,176.952179 425.016876,172.357361 424.765594,167.929214 
	C423.614777,147.649429 404.555542,137.299042 386.055756,147.449142 
M499.187775,306.250977 
	C505.777435,314.548126 514.569763,316.016785 524.348694,314.308289 
	C533.730591,312.669159 539.812500,306.761566 541.764221,297.921326 
	C543.301025,290.960327 543.594482,283.417969 542.784119,276.322998 
	C541.761780,267.372833 535.901062,261.299896 527.122559,258.841919 
	C518.200989,256.343872 509.620453,257.035950 502.405426,263.667725 
	C492.208923,273.039917 490.547211,292.988739 499.187775,306.250977 
M468.597900,173.012512 
	C471.434753,180.984970 474.388214,188.919250 477.020905,196.958572 
	C477.627563,198.811066 477.697418,201.223724 477.052551,203.036499 
	C473.918488,211.846619 473.802704,211.805435 463.988251,212.130554 
	C462.940399,220.862488 464.359619,222.175293 472.841125,220.686127 
	C477.966095,219.786301 481.191162,216.722275 482.960266,212.083572 
	C491.056732,190.853973 499.075043,169.594543 507.099091,148.337402 
	C507.465973,147.365387 507.616669,146.311783 507.880798,145.244629 
	C504.202484,145.244629 500.914703,145.244629 497.540558,145.244629 
	C492.924164,159.098206 488.366150,172.776581 483.490570,187.408035 
	C478.619873,172.666565 474.100464,158.988312 469.569946,145.276367 
	C465.989929,145.276367 462.580994,145.276367 458.658142,145.276367 
	C461.944885,154.547943 465.093781,163.430634 468.597900,173.012512 
M624.423889,267.012695 
	C625.326660,264.477631 626.229370,261.942596 627.189148,259.247375 
	C623.192444,259.247375 619.905151,259.247375 616.540649,259.247375 
	C611.923462,273.102112 607.366516,286.776093 602.490662,301.406952 
	C597.617859,286.659241 593.098694,272.981934 588.571472,259.280212 
	C584.984192,259.280212 581.577087,259.280212 577.789429,259.280212 
	C578.385742,261.182892 578.819397,262.757690 579.369019,264.290955 
	C584.911194,279.752197 590.495544,295.198395 596.019043,310.666321 
	C598.930237,318.818939 593.015198,326.641693 584.626404,325.850494 
	C584.049866,325.796082 583.451782,325.969879 582.925537,326.030426 
	C582.925537,328.917023 582.925537,331.494537 582.925537,333.971466 
	C592.461243,336.566833 598.529724,334.378998 601.949036,325.842682 
	C609.655640,306.603424 616.777405,287.129883 624.423889,267.012695 
M321.173279,182.497559 
	C321.173279,187.935623 321.173279,193.373688 321.173279,198.739883 
	C324.757172,198.739883 327.685364,198.739883 330.995087,198.739883 
	C330.995087,188.174561 331.004517,177.877167 330.991028,167.579819 
	C330.984497,162.592255 332.870117,158.518250 336.811890,155.449966 
	C340.672394,152.444916 345.132996,151.868683 349.574646,153.350510 
	C353.958649,154.813095 355.099731,158.809952 355.362244,162.996292 
	C355.570404,166.315475 355.666962,169.645920 355.683563,172.972015 
	C355.726562,181.576706 355.697998,190.181747 355.697998,198.768539 
	C359.160126,198.768539 362.089905,198.768539 365.010010,198.768539 
	C365.010010,185.215607 365.344788,171.894241 364.892944,158.599609 
	C364.588989,149.656479 358.642761,144.643555 349.654175,143.963562 
	C342.315826,143.408432 336.193237,145.923126 330.653656,151.341995 
	C330.405090,148.774155 330.233643,147.002731 330.070557,145.317932 
	C327.075073,145.317932 324.320953,145.317932 321.173279,145.317932 
	C321.173279,157.574509 321.173279,169.536377 321.173279,182.497559 
M484.075836,273.551453 
	C483.686798,267.744629 481.793060,262.494354 476.243286,260.007477 
	C466.575134,255.675171 457.652527,257.708435 449.643341,265.223938 
	C449.391785,262.722778 449.213776,260.953278 449.051971,259.344543 
	C446.027222,259.344543 443.273346,259.344543 440.539429,259.344543 
	C440.539429,277.390686 440.539429,295.108704 440.539429,312.703857 
	C443.837311,312.703857 446.755280,312.703857 449.997192,312.703857 
	C449.997192,302.089111 449.976807,291.779938 450.004913,281.470947 
	C450.021362,275.439209 452.681610,270.862518 458.030365,268.095337 
	C466.238281,263.848999 473.296143,267.498535 474.268616,276.631470 
	C474.778076,281.416168 474.643280,286.275879 474.682617,291.102692 
	C474.741669,298.346039 474.697998,305.590240 474.697998,312.700195 
	C478.274719,312.700195 481.180084,312.700195 484.139435,312.700195 
	C484.139435,299.735382 484.139435,287.081360 484.075836,273.551453 
M154.499939,19.125395 
	C142.237686,19.125395 129.975433,19.125395 117.609673,19.125395 
	C117.609673,22.595346 117.609673,25.457010 117.609673,28.746731 
	C125.886368,28.746731 133.786224,28.746731 142.120117,28.746731 
	C142.120117,50.401554 142.120117,71.621590 142.120117,92.779060 
	C145.835785,92.779060 149.097992,92.779060 152.858643,92.779060 
	C152.858643,71.331497 152.858643,50.119816 152.858643,28.421513 
	C161.242035,28.421513 169.124481,28.421513 176.859039,28.421513 
	C176.859039,25.034262 176.859039,22.154409 176.859039,19.125395 
	C169.474045,19.125395 162.486938,19.125395 154.499939,19.125395 
M556.020874,290.496521 
	C556.021118,293.993774 555.971191,297.491882 556.030884,300.988129 
	C556.228943,312.584625 562.975220,316.880127 574.182068,312.356903 
	C574.182068,311.291718 574.222534,310.138062 574.170471,308.988586 
	C574.120056,307.877472 573.974487,306.770660 573.876709,305.726135 
	C566.775330,305.011719 566.034363,304.816742 565.982300,301.483795 
	C565.804016,290.069824 565.913879,278.651367 565.913879,266.767853 
	C568.989929,266.767853 571.547363,266.767853 573.982422,266.767853 
	C573.982422,264.004364 573.982422,261.718719 573.982422,259.199219 
	C571.227295,259.061737 568.653503,258.933319 565.615356,258.781708 
	C565.615356,253.749023 565.615356,249.012833 565.615356,244.392731 
	C562.194641,244.392731 559.273560,244.392731 555.885071,244.392731 
	C555.885071,249.436356 555.885071,254.176208 555.885071,258.885315 
	C553.309570,259.010040 551.219543,259.111267 549.227173,259.207733 
	C549.227173,262.080444 549.227173,264.476593 549.227173,266.846558 
	C551.645752,266.986755 553.730469,267.107635 556.020874,267.240417 
	C556.020874,274.886627 556.020874,282.192230 556.020874,290.496521 
M446.836975,179.456100 
	C446.836975,170.704910 446.836975,161.953735 446.836975,152.912704 
	C449.902954,152.912704 452.345184,152.912704 454.966309,152.912704 
	C454.966309,150.208160 454.966309,147.809341 454.966309,145.176926 
	C452.194305,145.052933 449.620880,144.937820 446.582794,144.801926 
	C446.582794,139.720230 446.582794,134.985977 446.582794,130.408752 
	C443.165863,130.408752 440.243286,130.408752 436.855042,130.408752 
	C436.855042,135.470276 436.855042,140.211334 436.855042,145.321808 
	C434.275116,145.321808 432.195343,145.321808 430.244659,145.321808 
	C430.244659,148.113174 430.244659,150.509506 430.244659,152.869583 
	C432.683441,152.999420 434.765564,153.110260 437.021790,153.230362 
	C437.021790,164.758530 436.931366,175.899994 437.046722,187.039337 
	C437.166534,198.608826 444.174866,202.980698 454.846741,198.458664 
	C454.846741,196.142639 454.846741,193.896652 454.846741,191.691681 
	C446.845886,190.954376 446.845795,190.954376 446.837097,182.935104 
	C446.836182,182.102356 446.836975,181.269592 446.836975,179.456100 
z"/>
<path fill="#93CAE7" opacity="1.000000" stroke="none" 
	d="
M164.091309,329.014038 
	C154.847107,332.771576 145.509506,336.132690 135.317642,335.999939 
	C124.668762,335.861206 114.625450,333.497406 105.404587,328.005219 
	C104.572800,327.509827 103.590248,327.267548 102.341377,326.966003 
	C102.005035,327.024292 101.969536,327.093384 101.969536,327.093384 
	C97.517899,322.481659 92.619949,318.218597 88.695183,313.195221 
	C74.848564,295.472595 72.081032,275.568298 80.379623,254.989563 
	C88.519432,234.804565 103.958015,222.615448 125.778236,218.849304 
	C137.496841,216.826675 148.538834,218.767471 159.356384,223.168228 
	C160.558990,223.657455 161.885529,223.842026 163.585556,224.490387 
	C164.738586,225.316971 165.460648,225.821060 166.349411,226.586639 
	C167.030945,227.260254 167.526932,227.698822 168.063293,228.080734 
	C196.815414,248.552917 202.694031,285.525513 181.081589,313.452393 
	C176.425903,319.468323 169.736053,323.909973 163.996704,329.037781 
	C164.010193,328.998779 164.091309,329.014038 164.091309,329.014038 
z"/>
<path fill="#CBEFCB" opacity="1.000000" stroke="none" 
	d="
M258.980408,390.958466 
	C258.325409,394.309509 257.467590,397.635376 257.048126,401.015656 
	C254.249390,423.568573 232.258057,445.622955 209.797455,449.059357 
	C189.249588,452.203186 171.555130,446.725891 156.933060,432.276001 
	C136.219635,411.806396 134.245392,378.257538 152.234863,355.419708 
	C155.877045,350.795898 160.712418,347.114807 164.971146,342.971832 
	C166.006027,341.965088 166.935715,340.850159 168.286957,339.482849 
	C169.317139,339.109131 169.974106,339.037598 170.998444,338.866821 
	C190.200912,329.629486 208.931580,329.522308 227.590393,339.670776 
	C228.717056,340.239899 229.799911,340.555359 231.080444,341.151550 
	C244.370651,350.442047 252.973404,362.541199 256.556976,378.109924 
	C257.321167,381.429779 258.175415,384.728943 258.891968,388.396729 
	C258.857330,389.490051 258.918884,390.224243 258.980408,390.958466 
z"/>
<path fill="#EFC7B0" opacity="1.000000" stroke="none" 
	d="
M97.824875,335.932007 
	C104.324463,341.527130 111.609848,346.440247 117.172142,352.848877 
	C132.170410,370.129272 134.266006,397.787018 122.740952,417.377319 
	C110.883797,437.532074 93.145630,447.899506 69.745132,447.948975 
	C41.718292,448.008270 17.272541,425.930450 12.796128,398.091614 
	C7.951598,367.963470 27.842714,338.208710 58.049301,331.437897 
	C70.313431,328.688934 82.131767,330.171783 94.225792,334.767456 
	C95.725441,335.420471 96.775162,335.676239 97.824875,335.932007 
z"/>
<path fill="#92C9E6" opacity="1.000000" stroke="none" 
	d="
M168.405640,217.082291 
	C153.157639,208.312729 144.208939,194.924942 141.115829,177.914627 
	C134.056290,139.091370 164.539474,105.422935 203.966156,108.072273 
	C229.670242,109.799500 252.677460,130.461380 256.919495,156.106873 
	C260.806885,179.608398 253.341171,198.969101 234.696198,213.925949 
	C234.181808,214.338593 233.761581,214.868652 232.950027,215.837891 
	C232.091843,216.382599 231.581085,216.433380 230.780945,216.718903 
	C211.150146,228.391144 191.404205,229.029480 171.243744,218.823730 
	C170.283463,218.011032 169.344543,217.546661 168.405640,217.082291 
M203.544250,204.190414 
	C209.426010,201.493881 215.307770,198.797363 221.193832,196.098862 
	C221.694244,197.723282 222.505066,200.355408 223.272369,202.846222 
	C225.655838,202.846222 227.612579,202.846222 229.747711,202.846222 
	C229.747711,189.628311 229.747711,176.575745 229.747711,163.501343 
	C218.888275,163.501343 208.331665,163.501343 197.512115,163.501343 
	C197.512115,166.425385 197.512115,168.997940 197.512115,172.131073 
	C205.109955,172.131073 212.506042,172.131073 219.866013,172.131073 
	C220.067581,185.277786 213.782867,193.236160 201.998276,195.326569 
	C189.301254,197.578796 179.689285,192.165802 175.651230,180.358459 
	C172.881500,172.259811 172.883469,164.004257 174.811249,155.739548 
	C177.313812,145.010727 185.136459,137.725128 194.801437,136.968109 
	C207.270874,135.991440 213.739517,139.978119 218.787415,151.830902 
	C222.040863,151.830902 225.339645,151.830902 229.070404,151.830902 
	C228.162598,148.880707 227.512878,146.143860 226.492508,143.552979 
	C218.855316,124.161087 188.606125,123.555077 176.096756,134.490051 
	C164.556976,144.577454 162.177032,157.663208 162.933502,172.051254 
	C164.119537,194.609451 180.486069,207.999802 203.544250,204.190414 
z"/>
<path fill="#EFC7B0" opacity="1.000000" stroke="none" 
	d="
M238.503586,223.688538 
	C274.087830,208.094025 312.424133,226.599136 321.401611,263.703766 
	C327.294922,288.061249 316.457886,314.202667 295.191345,326.972687 
	C294.491211,327.393097 293.893433,327.984039 293.123688,328.785645 
	C292.999451,329.075836 293.070770,329.020294 292.714478,329.104156 
	C279.846710,334.778931 267.038544,337.531281 253.186356,335.054413 
	C215.493652,328.314728 193.956284,286.201630 210.614227,251.700623 
	C216.160095,240.214310 224.886047,231.911118 235.476074,225.136276 
	C236.576523,225.495651 237.398254,225.654083 238.220001,225.812515 
	C238.314529,225.104523 238.409058,224.396530 238.503586,223.688538 
M272.367035,284.053406 
	C273.865356,283.991913 275.375244,284.028229 276.860168,283.853271 
	C287.241577,282.629974 293.870056,275.104462 294.662109,263.702606 
	C295.397186,253.121078 289.662811,243.276581 279.971741,242.401932 
	C266.683899,241.202682 253.206650,242.102051 239.572006,242.102051 
	C239.572006,266.049774 239.572006,290.300934 239.572006,314.784119 
	C243.064377,314.784119 246.304291,314.784119 250.029160,314.784119 
	C250.029160,304.530090 250.029160,294.464600 250.029160,284.055756 
	C257.471741,284.055756 264.436493,284.055756 272.367035,284.053406 
z"/>
<path fill="#CAEECA" opacity="1.000000" stroke="none" 
	d="
M299.427155,336.666046 
	C309.047913,332.903625 318.767090,329.693878 329.320862,329.987457 
	C358.292877,330.793427 381.826050,352.284943 386.206787,379.850342 
	C391.055054,410.357544 370.739044,439.761230 341.138153,446.550537 
	C308.170776,454.112000 274.336060,431.455536 269.946075,398.263611 
	C269.664246,396.132629 269.307892,394.011505 269.023132,391.092285 
	C269.031342,389.559723 269.002655,388.820679 268.985382,387.636169 
	C269.505829,383.434814 269.789246,379.631805 270.562805,375.931244 
	C273.934540,359.800659 283.447357,347.895325 296.906708,338.787903 
	C297.926544,338.214447 298.676849,337.440247 299.427155,336.666046 
M293.127838,378.499969 
	C293.127838,393.925446 293.127838,409.350891 293.127838,424.680023 
	C296.888885,424.680023 299.970856,424.680023 303.299500,424.680023 
	C303.299500,405.525208 303.299500,386.696899 303.299500,367.868591 
	C303.501068,367.828949 303.702667,367.789276 303.904236,367.749634 
	C310.419617,386.816406 316.934998,405.883209 323.417694,424.854370 
	C327.168976,424.854370 330.470795,424.854370 333.892822,424.854370 
	C340.313171,405.959320 346.699890,387.163177 353.086609,368.367035 
	C353.488525,368.466675 353.890472,368.566284 354.292389,368.665924 
	C354.292389,387.408752 354.292389,406.151581 354.292389,424.636169 
	C357.734924,424.636169 360.804321,424.636169 363.687775,424.636169 
	C363.687775,400.010040 363.687775,375.756622 363.687775,351.323608 
	C358.775909,351.323608 354.157013,351.323608 349.285370,351.323608 
	C342.545166,371.237427 335.808533,391.140686 328.723083,412.074524 
	C321.533325,390.969513 314.750427,371.058899 308.055176,351.405518 
	C302.904999,351.405518 298.292145,351.405518 293.127838,351.405518 
	C293.127838,360.272949 293.127838,368.886444 293.127838,378.499969 
z"/>
<path fill="#FFFFFF" opacity="1.000000" stroke="none" 
	d="
M551.809570,196.907822 
	C542.101257,202.684097 534.419922,202.066711 524.091248,194.600006 
	C524.091248,198.996994 524.091248,203.078964 524.091248,207.160934 
	C524.091248,211.300064 524.091248,215.439178 524.091248,219.884277 
	C520.970032,219.884277 518.073425,219.884277 514.894165,219.884277 
	C514.894165,195.175842 514.894165,170.471390 514.894165,145.487579 
	C517.784485,145.487579 520.532654,145.487579 523.692139,145.487579 
	C523.843750,147.113617 524.000610,148.796051 524.171570,150.629623 
	C537.908569,138.413467 552.173767,144.679535 557.955811,153.523193 
	C564.070496,162.875610 564.316101,188.377930 551.809570,196.907822 
M524.132812,168.016968 
	C524.488525,172.945511 524.225525,178.022720 525.364441,182.763077 
	C526.642456,188.081985 530.447021,191.498596 536.321167,192.099686 
	C542.352417,192.716858 546.891602,190.246536 549.391418,185.035492 
	C553.556641,176.353073 553.726624,167.301865 549.139648,158.727509 
	C544.598999,150.239731 532.249573,150.065475 527.386353,158.313675 
	C525.827454,160.957626 525.258240,164.185059 524.132812,168.016968 
z"/>
<path fill="#FFFFFF" opacity="1.000000" stroke="none" 
	d="
M645.231445,309.937561 
	C644.342224,310.099762 643.180176,310.489258 643.172119,310.901398 
	C643.054443,316.889709 643.091309,322.881073 643.091248,328.871704 
	C643.091248,330.500244 643.091248,332.128754 643.091248,333.972107 
	C639.806580,333.972107 636.901367,333.972107 633.888367,333.972107 
	C633.888367,309.029114 633.888367,284.295593 633.888367,259.399170 
	C636.937866,259.399170 639.715210,259.399170 642.714233,259.399170 
	C642.853516,261.184845 642.979553,262.800568 643.064697,263.891235 
	C646.987061,262.028229 650.882568,259.204529 655.175476,258.328674 
	C666.317017,256.055511 676.237305,262.223145 679.462769,273.188293 
	C682.304993,282.850403 681.989685,292.663879 677.966919,301.983459 
	C672.346069,315.005005 656.613281,318.841797 645.231445,309.937561 
M665.362671,303.008911 
	C671.763123,295.873413 673.261658,282.424561 668.764404,273.561951 
	C666.326843,268.758301 662.344543,266.361023 657.172485,266.356781 
	C651.996216,266.352509 647.917297,268.683228 645.666443,273.606628 
	C642.509399,280.512085 642.007202,287.719421 643.843933,294.980896 
	C646.565552,305.740479 655.289368,309.201019 665.362671,303.008911 
z"/>
<path fill="#FFFFFF" opacity="1.000000" stroke="none" 
	d="
M491.002197,416.934387 
	C481.485779,426.805939 469.902802,427.407196 459.091309,418.183685 
	C459.091309,422.972443 459.091278,427.161957 459.091278,431.351471 
	C459.091278,435.479706 459.091309,439.607941 459.091309,443.959229 
	C455.826721,443.959229 452.919220,443.959229 449.878784,443.959229 
	C449.878784,419.061157 449.878784,394.328705 449.878784,369.403076 
	C452.912811,369.403076 455.684937,369.403076 458.712250,369.403076 
	C458.846802,371.159149 458.970306,372.770966 459.009369,373.280823 
	C463.868286,371.550964 468.859619,368.746979 474.109222,368.125854 
	C484.035797,366.951355 492.693634,373.154144 495.409729,383.156830 
	C498.550964,394.725220 498.163788,406.181641 491.002197,416.934387 
M459.655182,404.502777 
	C461.853363,412.540405 465.967377,416.167908 472.939911,416.216553 
	C479.346588,416.261200 484.852112,412.008057 486.093079,404.296417 
	C487.015808,398.562286 486.810852,392.397736 485.781555,386.662994 
	C484.566772,379.894745 479.191956,376.209564 473.013306,376.283691 
	C467.098969,376.354645 461.881561,380.017578 460.558380,386.492828 
	C459.416290,392.081970 459.685852,397.959595 459.655182,404.502777 
z"/>
<path fill="#FFFFFF" opacity="1.000000" stroke="none" 
	d="
M410.558411,424.574280 
	C397.470703,425.386261 389.995575,418.286255 390.938782,406.417542 
	C391.467621,399.762939 395.498138,394.851196 403.039886,392.990326 
	C408.824280,391.563080 414.907501,391.355530 420.703766,389.963806 
	C422.826782,389.454041 425.816956,387.283020 426.063599,385.537933 
	C426.387390,383.247192 425.099213,379.658752 423.267578,378.318420 
	C415.343567,372.519806 405.136292,376.271637 402.313873,385.757782 
	C399.622711,385.757782 396.862549,385.757782 394.109406,385.757782 
	C393.712250,377.052826 396.958191,371.896545 404.802216,369.335724 
	C411.967621,366.996429 419.248016,367.158875 426.359192,369.666718 
	C433.058197,372.029205 435.852722,376.007233 435.935547,383.205170 
	C436.039001,392.192383 436.042572,401.182678 435.926636,410.169525 
	C435.875824,414.105560 435.937317,417.594147 441.684570,415.935944 
	C441.684570,418.662872 441.684570,420.767487 441.684570,422.849884 
	C433.899231,425.858704 429.925842,424.386627 427.201172,418.276489 
	C421.749329,420.366943 416.364624,422.431671 410.558411,424.574280 
M422.947662,411.358734 
	C426.900513,407.131500 426.399933,402.063538 426.020172,396.979553 
	C419.972961,398.034454 414.229767,398.867493 408.565613,400.072235 
	C402.986481,401.258911 400.409027,404.696075 401.028809,409.452515 
	C401.584229,413.715363 405.280762,416.852264 410.506561,416.099457 
	C414.597839,415.510101 418.465546,413.368835 422.947662,411.358734 
z"/>
<path fill="#FFFFFF" opacity="1.000000" stroke="none" 
	d="
M308.594543,186.538361 
	C303.025024,197.750153 293.282867,202.682083 281.309479,200.577576 
	C270.601471,198.695480 263.190796,190.556351 261.767792,178.961823 
	C260.437744,168.124939 261.791565,157.965714 270.258942,150.061844 
	C277.241425,143.544037 285.608551,142.527206 294.435822,145.174561 
	C303.438507,147.874512 308.443146,154.316116 309.901978,163.462540 
	C310.472748,167.040985 310.506195,170.705154 310.825806,174.870178 
	C297.758209,174.870178 285.050354,174.870178 272.417603,174.870178 
	C271.363373,182.828323 275.141113,189.788834 281.220825,191.732590 
	C288.417480,194.033417 295.356049,191.288391 299.125854,184.649017 
	C301.029205,181.296860 301.029205,181.296860 309.775330,182.025085 
	C309.437714,183.454285 309.111603,184.834808 308.594543,186.538361 
M273.696991,160.519836 
	C273.035828,162.617599 272.374634,164.715378 271.605194,167.156586 
	C281.632721,167.156586 290.837280,167.156586 300.043640,167.156586 
	C299.920105,159.776321 296.660736,154.775650 291.032867,153.065933 
	C284.225739,150.997955 278.836823,153.132187 273.696991,160.519836 
z"/>
<path fill="#FFFFFF" opacity="1.000000" stroke="none" 
	d="
M570.687256,178.314453 
	C569.590210,167.524445 571.074036,157.877914 578.987793,150.301819 
	C585.903015,143.681534 594.250183,142.532578 603.126831,145.078720 
	C612.163940,147.670898 617.323792,154.012680 618.854126,163.179993 
	C619.475708,166.903824 619.484741,170.729935 619.810791,175.011963 
	C606.570190,175.011963 593.822632,175.011963 581.102356,175.011963 
	C580.759888,183.707291 584.436951,190.071228 590.521301,191.824524 
	C598.024536,193.986664 604.183167,191.276108 608.521606,183.902237 
	C609.987488,181.410751 609.987549,181.410767 618.286499,181.929398 
	C617.885864,192.095566 608.580200,200.237106 596.617371,200.887772 
	C582.678162,201.645935 573.005493,193.373993 570.687256,178.314453 
M609.110291,166.833954 
	C608.719299,157.622635 603.286987,152.058746 594.932556,152.312897 
	C587.253540,152.546478 581.173340,159.178650 581.449402,167.360077 
	C590.398376,167.360077 599.362061,167.360077 609.110291,166.833954 
z"/>
<path fill="#FFFFFF" opacity="1.000000" stroke="none" 
	d="
M286.907684,53.260998 
	C287.685425,58.544518 288.385468,63.436855 289.171417,68.929649 
	C275.675446,68.929649 262.938690,68.929649 250.251480,68.929649 
	C249.562744,77.287193 253.316940,83.971031 259.395660,85.796249 
	C266.838745,88.031128 273.297211,85.297157 277.444275,77.998756 
	C280.141022,73.252754 284.187836,76.865677 287.620087,75.705414 
	C285.725250,86.428680 279.018066,92.829285 268.208954,94.637901 
	C257.660614,96.402885 247.322327,91.854088 242.882141,82.748932 
	C237.510056,71.732811 237.701416,60.406357 243.685608,49.709499 
	C248.618057,40.892704 256.767670,37.137756 266.797455,38.066582 
	C276.354279,38.951611 283.373077,43.578087 286.907684,53.260998 
M253.269073,51.910519 
	C251.982056,54.800541 250.695038,57.690567 249.143143,61.175385 
	C259.572144,61.175385 268.778473,61.175385 277.983032,61.175385 
	C278.001648,54.445675 275.400879,49.857410 270.464539,47.655895 
	C264.561981,45.023464 259.125732,46.225468 253.269073,51.910519 
z"/>
<path fill="#FFFFFF" opacity="1.000000" stroke="none" 
	d="
M694.941467,306.016205 
	C686.236389,293.450989 687.699097,273.982880 697.919800,264.335724 
	C704.869995,257.775635 713.143372,256.542511 722.023071,259.050079 
	C731.059265,261.601807 736.251465,267.895630 737.832703,277.039368 
	C738.476868,280.764313 738.496704,284.597229 738.843201,288.911499 
	C725.703674,288.911499 712.988586,288.911499 700.333740,288.911499 
	C699.458252,297.056427 703.212891,303.867676 709.291626,305.762085 
	C716.687805,308.067047 723.404236,305.346069 727.351746,298.114838 
	C730.018311,293.230011 734.131042,296.945221 738.097717,295.399017 
	C735.802917,304.616028 731.308655,310.923859 722.756836,313.494324 
	C712.205444,316.665802 702.694763,315.060699 694.941467,306.016205 
M722.498352,268.828705 
	C711.588989,262.945343 700.755920,268.823456 700.245789,281.032043 
	C709.549927,281.032043 718.848572,281.032043 729.913391,281.032043 
	C727.256104,276.394104 725.201477,272.808167 722.498352,268.828705 
z"/>
<path fill="#FFFFFF" opacity="1.000000" stroke="none" 
	d="
M386.817688,307.160400 
	C378.114532,295.101837 378.279541,282.573212 384.407043,270.161438 
	C389.157013,260.539978 400.008240,256.168549 410.688477,258.342712 
	C421.437500,260.530823 428.020081,268.077942 429.131989,279.567261 
	C429.417175,282.513824 429.549133,285.475220 429.786591,288.942932 
	C416.663330,288.942932 403.942352,288.942932 391.272522,288.942932 
	C390.533844,297.197113 394.287720,303.931244 400.342468,305.783234 
	C407.753143,308.049957 414.370087,305.320404 418.386475,298.070557 
	C421.063019,293.239288 425.150635,296.918335 429.102631,295.446320 
	C426.860687,304.226685 422.732422,310.391663 414.635406,313.162292 
	C404.367859,316.675568 394.991364,315.365295 386.817688,307.160400 
M405.490906,266.298431 
	C396.319672,267.563843 391.475586,272.561615 391.297852,281.183044 
	C400.505096,281.183044 409.707794,281.183044 418.904907,281.183044 
	C419.156097,272.535309 415.199005,267.967041 405.490906,266.298431 
z"/>
<path fill="#FFFFFF" opacity="1.000000" stroke="none" 
	d="
M228.293976,66.070755 
	C228.293945,75.203163 228.293945,83.845726 228.293945,92.749420 
	C225.117126,92.749420 222.195374,92.749420 218.549774,92.749420 
	C218.549774,87.606636 218.577484,82.370445 218.542740,77.134666 
	C218.499695,70.646034 218.628998,64.145470 218.274612,57.672459 
	C217.850098,49.918453 215.795425,47.450409 210.031540,46.654018 
	C203.643570,45.771400 197.109650,49.337135 195.299072,55.179478 
	C194.380569,58.143242 194.045486,61.379356 193.990372,64.501938 
	C193.826294,73.797348 193.931519,83.097504 193.931519,92.703217 
	C190.763855,92.703217 187.849594,92.703217 184.546783,92.703217 
	C184.546783,68.470024 184.546783,44.108593 184.546783,19.365444 
	C187.434723,19.365444 190.458237,19.365444 193.816330,19.365444 
	C193.816330,27.659748 193.816330,35.923592 193.816330,45.225441 
	C199.304916,39.169334 205.498672,37.386387 212.608749,37.937325 
	C221.450577,38.622448 227.132690,43.776749 227.947311,52.609760 
	C228.343674,56.907581 228.195602,61.255615 228.293976,66.070755 
z"/>
<path fill="#FFFFFF" opacity="1.000000" stroke="none" 
	d="
M326.171692,296.996338 
	C326.171692,277.548248 326.171692,258.599152 326.171692,239.318695 
	C329.396759,239.318695 332.317474,239.318695 335.745819,239.318695 
	C335.745819,247.478409 335.745819,255.857162 335.745819,265.690399 
	C341.309662,258.894897 347.640198,257.431976 354.724457,257.956635 
	C363.514160,258.607574 369.575439,263.860809 369.886414,272.724518 
	C370.352386,286.004791 370.007568,299.313477 370.007568,312.811218 
	C367.036469,312.811218 364.089874,312.811218 360.549805,312.811218 
	C360.549805,305.370453 360.576111,297.941223 360.539734,290.512299 
	C360.518555,286.187988 360.575195,281.852020 360.280975,277.542847 
	C359.768066,270.030334 357.887207,267.607452 352.396973,266.715057 
	C346.155121,265.700470 339.790955,268.814667 337.720337,274.421783 
	C336.652435,277.313538 336.103333,280.540375 336.036011,283.631439 
	C335.826508,293.247589 335.959259,302.871216 335.959259,312.750610 
	C332.670166,312.750610 329.743988,312.750610 326.171692,312.750610 
	C326.171692,307.697632 326.171692,302.596497 326.171692,296.996338 
z"/>
<path fill="#FFFFFF" opacity="1.000000" stroke="none" 
	d="
M386.374298,147.257782 
	C404.555542,137.299042 423.614777,147.649429 424.765594,167.929214 
	C425.016876,172.357361 424.648895,176.952179 423.725037,181.291138 
	C420.808655,194.988037 410.444336,202.172867 396.205261,200.828934 
	C383.971466,199.674286 375.720703,190.505814 374.918640,177.256256 
	C374.216522,165.658035 375.864868,154.964706 386.374298,147.257782 
M384.839478,168.847031 
	C384.203522,174.901764 384.601868,180.774567 387.809387,186.175598 
	C390.682190,191.013062 395.169678,192.619522 400.481537,192.451019 
	C405.495422,192.291962 409.562195,190.293884 411.730560,185.586624 
	C415.499695,177.404251 416.173523,168.962936 412.929779,160.449585 
	C410.972382,155.312332 406.947876,152.657349 401.556854,152.113266 
	C392.447052,151.193909 387.021393,156.399811 384.839478,168.847031 
z"/>
<path fill="#FFFFFF" opacity="1.000000" stroke="none" 
	d="
M499.003540,305.935822 
	C490.547211,292.988739 492.208923,273.039917 502.405426,263.667725 
	C509.620453,257.035950 518.200989,256.343872 527.122559,258.841919 
	C535.901062,261.299896 541.761780,267.372833 542.784119,276.322998 
	C543.594482,283.417969 543.301025,290.960327 541.764221,297.921326 
	C539.812500,306.761566 533.730591,312.669159 524.348694,314.308289 
	C514.569763,316.016785 505.777435,314.548126 499.003540,305.935822 
M507.838745,271.456238 
	C502.542023,280.198059 502.134369,289.333801 506.019196,298.624786 
	C508.418518,304.363068 513.219910,306.609192 519.249451,306.462677 
	C525.169922,306.318848 529.276978,303.587006 531.466309,297.971741 
	C534.082397,291.261871 534.762878,284.416107 532.939331,277.443787 
	C529.781128,265.368561 517.170349,262.028992 507.838745,271.456238 
z"/>
<path fill="#FFFFFF" opacity="1.000000" stroke="none" 
	d="
M468.420288,172.662918 
	C465.093781,163.430634 461.944885,154.547943 458.658142,145.276367 
	C462.580994,145.276367 465.989929,145.276367 469.569946,145.276367 
	C474.100464,158.988312 478.619873,172.666565 483.490570,187.408035 
	C488.366150,172.776581 492.924164,159.098206 497.540558,145.244629 
	C500.914703,145.244629 504.202484,145.244629 507.880798,145.244629 
	C507.616669,146.311783 507.465973,147.365387 507.099091,148.337402 
	C499.075043,169.594543 491.056732,190.853973 482.960266,212.083572 
	C481.191162,216.722275 477.966095,219.786301 472.841125,220.686127 
	C464.359619,222.175293 462.940399,220.862488 463.988251,212.130554 
	C473.802704,211.805435 473.918488,211.846619 477.052551,203.036499 
	C477.697418,201.223724 477.627563,198.811066 477.020905,196.958572 
	C474.388214,188.919250 471.434753,180.984970 468.420288,172.662918 
z"/>
<path fill="#FFFFFF" opacity="1.000000" stroke="none" 
	d="
M624.280518,267.382172 
	C616.777405,287.129883 609.655640,306.603424 601.949036,325.842682 
	C598.529724,334.378998 592.461243,336.566833 582.925537,333.971466 
	C582.925537,331.494537 582.925537,328.917023 582.925537,326.030426 
	C583.451782,325.969879 584.049866,325.796082 584.626404,325.850494 
	C593.015198,326.641693 598.930237,318.818939 596.019043,310.666321 
	C590.495544,295.198395 584.911194,279.752197 579.369019,264.290955 
	C578.819397,262.757690 578.385742,261.182892 577.789429,259.280212 
	C581.577087,259.280212 584.984192,259.280212 588.571472,259.280212 
	C593.098694,272.981934 597.617859,286.659241 602.490662,301.406952 
	C607.366516,286.776093 611.923462,273.102112 616.540649,259.247375 
	C619.905151,259.247375 623.192444,259.247375 627.189148,259.247375 
	C626.229370,261.942596 625.326660,264.477631 624.280518,267.382172 
z"/>
<path fill="#FFFFFF" opacity="1.000000" stroke="none" 
	d="
M321.173279,181.997894 
	C321.173279,169.536377 321.173279,157.574509 321.173279,145.317932 
	C324.320953,145.317932 327.075073,145.317932 330.070557,145.317932 
	C330.233643,147.002731 330.405090,148.774155 330.653656,151.341995 
	C336.193237,145.923126 342.315826,143.408432 349.654175,143.963562 
	C358.642761,144.643555 364.588989,149.656479 364.892944,158.599609 
	C365.344788,171.894241 365.010010,185.215607 365.010010,198.768539 
	C362.089905,198.768539 359.160126,198.768539 355.697998,198.768539 
	C355.697998,190.181747 355.726562,181.576706 355.683563,172.972015 
	C355.666962,169.645920 355.570404,166.315475 355.362244,162.996292 
	C355.099731,158.809952 353.958649,154.813095 349.574646,153.350510 
	C345.132996,151.868683 340.672394,152.444916 336.811890,155.449966 
	C332.870117,158.518250 330.984497,162.592255 330.991028,167.579819 
	C331.004517,177.877167 330.995087,188.174561 330.995087,198.739883 
	C327.685364,198.739883 324.757172,198.739883 321.173279,198.739883 
	C321.173279,193.373688 321.173279,187.935623 321.173279,181.997894 
z"/>
<path fill="#FFFFFF" opacity="1.000000" stroke="none" 
	d="
M484.107635,273.989380 
	C484.139435,287.081360 484.139435,299.735382 484.139435,312.700195 
	C481.180084,312.700195 478.274719,312.700195 474.697998,312.700195 
	C474.697998,305.590240 474.741669,298.346039 474.682617,291.102692 
	C474.643280,286.275879 474.778076,281.416168 474.268616,276.631470 
	C473.296143,267.498535 466.238281,263.848999 458.030365,268.095337 
	C452.681610,270.862518 450.021362,275.439209 450.004913,281.470947 
	C449.976807,291.779938 449.997192,302.089111 449.997192,312.703857 
	C446.755280,312.703857 443.837311,312.703857 440.539429,312.703857 
	C440.539429,295.108704 440.539429,277.390686 440.539429,259.344543 
	C443.273346,259.344543 446.027222,259.344543 449.051971,259.344543 
	C449.213776,260.953278 449.391785,262.722778 449.643341,265.223938 
	C457.652527,257.708435 466.575134,255.675171 476.243286,260.007477 
	C481.793060,262.494354 483.686798,267.744629 484.107635,273.989380 
z"/>
<path fill="#FFFFFF" opacity="1.000000" stroke="none" 
	d="
M154.999893,19.125395 
	C162.486938,19.125395 169.474045,19.125395 176.859039,19.125395 
	C176.859039,22.154409 176.859039,25.034262 176.859039,28.421513 
	C169.124481,28.421513 161.242035,28.421513 152.858643,28.421513 
	C152.858643,50.119816 152.858643,71.331497 152.858643,92.779060 
	C149.097992,92.779060 145.835785,92.779060 142.120117,92.779060 
	C142.120117,71.621590 142.120117,50.401554 142.120117,28.746731 
	C133.786224,28.746731 125.886368,28.746731 117.609673,28.746731 
	C117.609673,25.457010 117.609673,22.595346 117.609673,19.125395 
	C129.975433,19.125395 142.237686,19.125395 154.999893,19.125395 
z"/>
<path fill="#FFFFFF" opacity="1.000000" stroke="none" 
	d="
M556.020874,289.997192 
	C556.020874,282.192230 556.020874,274.886627 556.020874,267.240417 
	C553.730469,267.107635 551.645752,266.986755 549.227173,266.846558 
	C549.227173,264.476593 549.227173,262.080444 549.227173,259.207733 
	C551.219543,259.111267 553.309570,259.010040 555.885071,258.885315 
	C555.885071,254.176208 555.885071,249.436356 555.885071,244.392731 
	C559.273560,244.392731 562.194641,244.392731 565.615356,244.392731 
	C565.615356,249.012833 565.615356,253.749023 565.615356,258.781708 
	C568.653503,258.933319 571.227295,259.061737 573.982422,259.199219 
	C573.982422,261.718719 573.982422,264.004364 573.982422,266.767853 
	C571.547363,266.767853 568.989929,266.767853 565.913879,266.767853 
	C565.913879,278.651367 565.804016,290.069824 565.982300,301.483795 
	C566.034363,304.816742 566.775330,305.011719 573.876709,305.726135 
	C573.974487,306.770660 574.120056,307.877472 574.170471,308.988586 
	C574.222534,310.138062 574.182068,311.291718 574.182068,312.356903 
	C562.975220,316.880127 556.228943,312.584625 556.030884,300.988129 
	C555.971191,297.491882 556.021118,293.993774 556.020874,289.997192 
z"/>
<path fill="#FFFFFF" opacity="1.000000" stroke="none" 
	d="
M446.836975,179.946472 
	C446.836975,181.269592 446.836182,182.102356 446.837097,182.935104 
	C446.845795,190.954376 446.845886,190.954376 454.846741,191.691681 
	C454.846741,193.896652 454.846741,196.142639 454.846741,198.458664 
	C444.174866,202.980698 437.166534,198.608826 437.046722,187.039337 
	C436.931366,175.899994 437.021790,164.758530 437.021790,153.230362 
	C434.765564,153.110260 432.683441,152.999420 430.244659,152.869583 
	C430.244659,150.509506 430.244659,148.113174 430.244659,145.321808 
	C432.195343,145.321808 434.275116,145.321808 436.855042,145.321808 
	C436.855042,140.211334 436.855042,135.470276 436.855042,130.408752 
	C440.243286,130.408752 443.165863,130.408752 446.582794,130.408752 
	C446.582794,134.985977 446.582794,139.720230 446.582794,144.801926 
	C449.620880,144.937820 452.194305,145.052933 454.966309,145.176926 
	C454.966309,147.809341 454.966309,150.208160 454.966309,152.912704 
	C452.345184,152.912704 449.902954,152.912704 446.836975,152.912704 
	C446.836975,161.953735 446.836975,170.704910 446.836975,179.946472 
z"/>
<path fill="#436F8B" opacity="1.000000" stroke="none" 
	d="
M238.299774,223.394012 
	C238.409058,224.396530 238.314529,225.104523 238.220001,225.812515 
	C237.398254,225.654083 236.576523,225.495651 235.359589,224.800140 
	C233.666382,221.670105 232.368347,219.077133 231.070328,216.484146 
	C231.581085,216.433380 232.091843,216.382599 232.802200,216.136246 
	C234.699860,218.326950 236.397919,220.713226 238.299774,223.394012 
z"/>
<path fill="#46748E" opacity="1.000000" stroke="none" 
	d="
M299.241882,336.359985 
	C298.676849,337.440247 297.926544,338.214447 296.759888,338.460815 
	C295.252625,334.962036 294.161713,331.991180 293.070770,329.020294 
	C293.070770,329.020294 292.999451,329.075836 293.020599,329.115479 
	C295.046692,331.454742 297.051636,333.754333 299.241882,336.359985 
z"/>
<path fill="#45728E" opacity="1.000000" stroke="none" 
	d="
M97.938156,335.597961 
	C96.775162,335.676239 95.725441,335.420471 94.628464,334.942017 
	C96.804169,332.187378 99.027138,329.655396 101.609818,327.108398 
	C101.969536,327.093384 102.005035,327.024292 101.971840,327.043518 
	C100.642906,329.796478 99.347176,332.530212 97.938156,335.597961 
z"/>
<path fill="#43718D" opacity="1.000000" stroke="none" 
	d="
M170.631088,338.966064 
	C169.974106,339.037598 169.317139,339.109131 168.331406,339.141418 
	C166.610580,335.995056 165.218506,332.887970 163.958878,329.397461 
	C164.091309,329.014038 164.010193,328.998779 164.357300,328.971375 
	C166.679977,332.284698 168.655533,335.625366 170.631088,338.966064 
z"/>
<path fill="#41708D" opacity="1.000000" stroke="none" 
	d="
M168.289917,217.411743 
	C169.344543,217.546661 170.283463,218.011032 171.060898,219.110031 
	C169.327194,221.938171 167.754959,224.131653 166.182709,226.325150 
	C165.460648,225.821060 164.738586,225.316971 163.981720,224.441650 
	C165.356003,221.960678 166.765106,219.850937 168.289917,217.411743 
z"/>
<path fill="#336483" opacity="1.000000" stroke="none" 
	d="
M268.973938,388.081665 
	C269.002655,388.820679 269.031342,389.559723 269.025635,390.667358 
	C265.959351,391.027283 262.927460,391.018524 259.437988,390.984131 
	C258.918884,390.224243 258.857330,389.490051 259.347900,388.375854 
	C262.924652,388.024445 265.949310,388.053070 268.973938,388.081665 
z"/>
<path fill="none" opacity="1.000000" stroke="none" 
	d="
M268.985382,387.636169 
	C265.949310,388.053070 262.924652,388.024445 259.444092,388.016724 
	C258.175415,384.728943 257.321167,381.429779 256.556976,378.109924 
	C252.973404,362.541199 244.370651,350.442047 231.181412,340.820068 
	C232.211502,338.564240 233.491440,336.999115 234.393280,335.240143 
	C234.779846,334.486206 234.380020,333.329102 234.337494,332.355164 
	C233.531769,332.689056 232.462234,332.803711 231.968979,333.397278 
	C230.380508,335.308868 229.004517,337.397034 227.546616,339.417145 
	C208.931580,329.522308 190.200912,329.629486 170.998444,338.866821 
	C168.655533,335.625366 166.679977,332.284698 164.343811,329.010376 
	C169.736053,323.909973 176.425903,319.468323 181.081589,313.452393 
	C202.694031,285.525513 196.815414,248.552917 168.063293,228.080734 
	C167.526932,227.698822 167.030945,227.260254 166.349411,226.586639 
	C167.754959,224.131653 169.327194,221.938171 171.082275,219.458374 
	C191.404205,229.029480 211.150146,228.391144 230.780945,216.718903 
	C232.368347,219.077133 233.666382,221.670105 235.080902,224.599213 
	C224.886047,231.911118 216.160095,240.214310 210.614227,251.700623 
	C193.956284,286.201630 215.493652,328.314728 253.186356,335.054413 
	C267.038544,337.531281 279.846710,334.778931 292.714478,329.104156 
	C294.161713,331.991180 295.252625,334.962036 296.490356,338.260010 
	C283.447357,347.895325 273.934540,359.800659 270.562805,375.931244 
	C269.789246,379.631805 269.505829,383.434814 268.985382,387.636169 
z"/>
<path fill="#45728E" opacity="1.000000" stroke="none" 
	d="
M227.590393,339.670776 
	C229.004517,337.397034 230.380508,335.308868 231.968979,333.397278 
	C232.462234,332.803711 233.531769,332.689056 234.337494,332.355164 
	C234.380020,333.329102 234.779846,334.486206 234.393280,335.240143 
	C233.491440,336.999115 232.211502,338.564240 230.983749,340.539368 
	C229.799911,340.555359 228.717056,340.239899 227.590393,339.670776 
z"/>
<path fill="#FFFFFF" opacity="1.000000" stroke="none" 
	d="
M203.119843,204.268494 
	C180.486069,207.999802 164.119537,194.609451 162.933502,172.051254 
	C162.177032,157.663208 164.556976,144.577454 176.096756,134.490051 
	C188.606125,123.555077 218.855316,124.161087 226.492508,143.552979 
	C227.512878,146.143860 228.162598,148.880707 229.070404,151.830902 
	C225.339645,151.830902 222.040863,151.830902 218.787415,151.830902 
	C213.739517,139.978119 207.270874,135.991440 194.801437,136.968109 
	C185.136459,137.725128 177.313812,145.010727 174.811249,155.739548 
	C172.883469,164.004257 172.881500,172.259811 175.651230,180.358459 
	C179.689285,192.165802 189.301254,197.578796 201.998276,195.326569 
	C213.782867,193.236160 220.067581,185.277786 219.866013,172.131073 
	C212.506042,172.131073 205.109955,172.131073 197.512115,172.131073 
	C197.512115,168.997940 197.512115,166.425385 197.512115,163.501343 
	C208.331665,163.501343 218.888275,163.501343 229.747711,163.501343 
	C229.747711,176.575745 229.747711,189.628311 229.747711,202.846222 
	C227.612579,202.846222 225.655838,202.846222 223.272369,202.846222 
	C222.505066,200.355408 221.694244,197.723282 221.193832,196.098862 
	C215.307770,198.797363 209.426010,201.493881 203.119843,204.268494 
z"/>
<path fill="#FFFFFF" opacity="1.000000" stroke="none" 
	d="
M271.884155,284.054565 
	C264.436493,284.055756 257.471741,284.055756 250.029160,284.055756 
	C250.029160,294.464600 250.029160,304.530090 250.029160,314.784119 
	C246.304291,314.784119 243.064377,314.784119 239.572006,314.784119 
	C239.572006,290.300934 239.572006,266.049774 239.572006,242.102051 
	C253.206650,242.102051 266.683899,241.202682 279.971741,242.401932 
	C289.662811,243.276581 295.397186,253.121078 294.662109,263.702606 
	C293.870056,275.104462 287.241577,282.629974 276.860168,283.853271 
	C275.375244,284.028229 273.865356,283.991913 271.884155,284.054565 
M261.496246,275.045837 
	C266.747894,274.498779 272.159607,274.560974 277.206543,273.234772 
	C282.346527,271.884094 284.264130,267.745056 283.947906,261.862396 
	C283.671509,256.721527 281.498016,252.224106 276.275726,251.531815 
	C267.667877,250.390701 258.911133,250.372528 250.278885,249.884521 
	C250.278885,258.969269 250.278885,266.885437 250.278885,275.045837 
	C253.890823,275.045837 257.199432,275.045837 261.496246,275.045837 
z"/>
<path fill="#FFFFFF" opacity="1.000000" stroke="none" 
	d="
M293.127838,377.999939 
	C293.127838,368.886444 293.127838,360.272949 293.127838,351.405518 
	C298.292145,351.405518 302.904999,351.405518 308.055176,351.405518 
	C314.750427,371.058899 321.533325,390.969513 328.723083,412.074524 
	C335.808533,391.140686 342.545166,371.237427 349.285370,351.323608 
	C354.157013,351.323608 358.775909,351.323608 363.687775,351.323608 
	C363.687775,375.756622 363.687775,400.010040 363.687775,424.636169 
	C360.804321,424.636169 357.734924,424.636169 354.292389,424.636169 
	C354.292389,406.151581 354.292389,387.408752 354.292389,368.665924 
	C353.890472,368.566284 353.488525,368.466675 353.086609,368.367035 
	C346.699890,387.163177 340.313171,405.959320 333.892822,424.854370 
	C330.470795,424.854370 327.168976,424.854370 323.417694,424.854370 
	C316.934998,405.883209 310.419617,386.816406 303.904236,367.749634 
	C303.702667,367.789276 303.501068,367.828949 303.299500,367.868591 
	C303.299500,386.696899 303.299500,405.525208 303.299500,424.680023 
	C299.970856,424.680023 296.888885,424.680023 293.127838,424.680023 
	C293.127838,409.350891 293.127838,393.925446 293.127838,377.999939 
z"/>
<path fill="none" opacity="1.000000" stroke="none" 
	d="
M524.184509,167.581253 
	C525.258240,164.185059 525.827454,160.957626 527.386353,158.313675 
	C532.249573,150.065475 544.598999,150.239731 549.139648,158.727509 
	C553.726624,167.301865 553.556641,176.353073 549.391418,185.035492 
	C546.891602,190.246536 542.352417,192.716858 536.321167,192.099686 
	C530.447021,191.498596 526.642456,188.081985 525.364441,182.763077 
	C524.225525,178.022720 524.488525,172.945511 524.184509,167.581253 
z"/>
<path fill="none" opacity="1.000000" stroke="none" 
	d="
M665.088867,303.273865 
	C655.289368,309.201019 646.565552,305.740479 643.843933,294.980896 
	C642.007202,287.719421 642.509399,280.512085 645.666443,273.606628 
	C647.917297,268.683228 651.996216,266.352509 657.172485,266.356781 
	C662.344543,266.361023 666.326843,268.758301 668.764404,273.561951 
	C673.261658,282.424561 671.763123,295.873413 665.088867,303.273865 
z"/>
<path fill="none" opacity="1.000000" stroke="none" 
	d="
M459.493286,404.106232 
	C459.685852,397.959595 459.416290,392.081970 460.558380,386.492828 
	C461.881561,380.017578 467.098969,376.354645 473.013306,376.283691 
	C479.191956,376.209564 484.566772,379.894745 485.781555,386.662994 
	C486.810852,392.397736 487.015808,398.562286 486.093079,404.296417 
	C484.852112,412.008057 479.346588,416.261200 472.939911,416.216553 
	C465.967377,416.167908 461.853363,412.540405 459.493286,404.106232 
z"/>
<path fill="none" opacity="1.000000" stroke="none" 
	d="
M422.690125,411.637878 
	C418.465546,413.368835 414.597839,415.510101 410.506561,416.099457 
	C405.280762,416.852264 401.584229,413.715363 401.028809,409.452515 
	C400.409027,404.696075 402.986481,401.258911 408.565613,400.072235 
	C414.229767,398.867493 419.972961,398.034454 426.020172,396.979553 
	C426.399933,402.063538 426.900513,407.131500 422.690125,411.637878 
z"/>
<path fill="none" opacity="1.000000" stroke="none" 
	d="
M273.852539,160.164139 
	C278.836823,153.132187 284.225739,150.997955 291.032867,153.065933 
	C296.660736,154.775650 299.920105,159.776321 300.043640,167.156586 
	C290.837280,167.156586 281.632721,167.156586 271.605194,167.156586 
	C272.374634,164.715378 273.035828,162.617599 273.852539,160.164139 
z"/>
<path fill="none" opacity="1.000000" stroke="none" 
	d="
M608.718018,167.097015 
	C599.362061,167.360077 590.398376,167.360077 581.449402,167.360077 
	C581.173340,159.178650 587.253540,152.546478 594.932556,152.312897 
	C603.286987,152.058746 608.719299,157.622635 608.718018,167.097015 
z"/>
<path fill="none" opacity="1.000000" stroke="none" 
	d="
M253.520004,51.628765 
	C259.125732,46.225468 264.561981,45.023464 270.464539,47.655895 
	C275.400879,49.857410 278.001648,54.445675 277.983032,61.175385 
	C268.778473,61.175385 259.572144,61.175385 249.143143,61.175385 
	C250.695038,57.690567 251.982056,54.800541 253.520004,51.628765 
z"/>
<path fill="none" opacity="1.000000" stroke="none" 
	d="
M722.822632,269.025452 
	C725.201477,272.808167 727.256104,276.394104 729.913391,281.032043 
	C718.848572,281.032043 709.549927,281.032043 700.245789,281.032043 
	C700.755920,268.823456 711.588989,262.945343 722.822632,269.025452 
z"/>
<path fill="none" opacity="1.000000" stroke="none" 
	d="
M405.881683,266.339142 
	C415.199005,267.967041 419.156097,272.535309 418.904907,281.183044 
	C409.707794,281.183044 400.505096,281.183044 391.297852,281.183044 
	C391.475586,272.561615 396.319672,267.563843 405.881683,266.339142 
z"/>
<path fill="none" opacity="1.000000" stroke="none" 
	d="
M384.890381,168.398926 
	C387.021393,156.399811 392.447052,151.193909 401.556854,152.113266 
	C406.947876,152.657349 410.972382,155.312332 412.929779,160.449585 
	C416.173523,168.962936 415.499695,177.404251 411.730560,185.586624 
	C409.562195,190.293884 405.495422,192.291962 400.481537,192.451019 
	C395.169678,192.619522 390.682190,191.013062 387.809387,186.175598 
	C384.601868,180.774567 384.203522,174.901764 384.890381,168.398926 
z"/>
<path fill="none" opacity="1.000000" stroke="none" 
	d="
M508.048889,271.145752 
	C517.170349,262.028992 529.781128,265.368561 532.939331,277.443787 
	C534.762878,284.416107 534.082397,291.261871 531.466309,297.971741 
	C529.276978,303.587006 525.169922,306.318848 519.249451,306.462677 
	C513.219910,306.609192 508.418518,304.363068 506.019196,298.624786 
	C502.134369,289.333801 502.542023,280.198059 508.048889,271.145752 
z"/>
<path fill="#EBC4AD" opacity="1.000000" stroke="none" 
	d="
M261.002136,275.045837 
	C257.199432,275.045837 253.890823,275.045837 250.278885,275.045837 
	C250.278885,266.885437 250.278885,258.969269 250.278885,249.884521 
	C258.911133,250.372528 267.667877,250.390701 276.275726,251.531815 
	C281.498016,252.224106 283.671509,256.721527 283.947906,261.862396 
	C284.264130,267.745056 282.346527,271.884094 277.206543,273.234772 
	C272.159607,274.560974 266.747894,274.498779 261.002136,275.045837 
z"/>
</svg>